<svg xmlns="http://www.w3.org/2000/svg" xmlns:xlink="http://www.w3.org/1999/xlink" width="796.939" height="661.305" viewBox="0 0 796.939 661.305">
  <defs>
    <linearGradient id="linear-gradient" x1="0.505" y1="1.007" x2="0.505" gradientUnits="objectBoundingBox">
      <stop offset="0" stop-color="gray" stop-opacity="0.251"/>
      <stop offset="0.54" stop-color="gray" stop-opacity="0.122"/>
      <stop offset="1" stop-color="gray" stop-opacity="0.102"/>
    </linearGradient>
  </defs>
  <g id="confirmOrderSVG" transform="translate(-282 -122.601)">
    <g id="Group_2" data-name="Group 2" transform="translate(524.153 122.601)">
      <rect id="Rectangle_76" data-name="Rectangle 76" width="9.707" height="80.001" rx="2.29" transform="translate(319.5 149.714)" fill="#3f3d56"/>
      <rect id="Rectangle_80" data-name="Rectangle 80" width="324.737" height="659.98" rx="38.99" fill="#3f3d56"/>
      <path id="Path_176" data-name="Path 176" d="M723.588,199H686.337v4.481a21.233,21.233,0,0,1-21.244,21.233H546.626a21.233,21.233,0,0,1-21.244-21.233V199H490.5a25.791,25.791,0,0,0-25.791,25.791V798.853A25.791,25.791,0,0,0,490.5,824.644H723.588a25.791,25.791,0,0,0,25.791-25.791V224.835A25.791,25.791,0,0,0,723.588,199Z" transform="translate(-444.05 -181.809)" fill="#fff"/>
      <rect id="Rectangle_81" data-name="Rectangle 81" width="45.347" height="9.203" rx="3.87" transform="translate(131.045 19.71)" fill="#e6e8ec"/>
      <circle id="Ellipse_5" data-name="Ellipse 5" cx="5.226" cy="5.226" r="5.226" transform="translate(183.251 19.085)" fill="#e6e8ec"/>
      <circle id="Ellipse_11" data-name="Ellipse 11" cx="61.431" cy="61.431" r="61.431" transform="translate(102.921 276.662)" fill="#fff"/>
      <path id="Path_222" data-name="Path 222" d="M684.419,491.717a82.1,82.1,0,1,1-82.1-82.107,82.1,82.1,0,0,1,82.1,82.107Zm-91.593,43.46,60.9-60.9a5.292,5.292,0,0,0,0-7.494l-7.494-7.439a5.281,5.281,0,0,0-7.483,0L589.08,509.015l-23.194-23.249a5.314,5.314,0,0,0-7.494,0L550.9,493.3a5.314,5.314,0,0,0,0,7.494l34.436,34.424a5.292,5.292,0,0,0,7.494,0Z" transform="translate(-439.269 -162.203)" fill="#00bfa6"/>
    </g>
    <g id="Group_1" data-name="Group 1" transform="translate(308.574 209.253)">
      <rect id="Rectangle_77" data-name="Rectangle 77" width="4.894" height="23.675" rx="2.29" transform="translate(222.874 43.46)" fill="#3f3d56"/>
      <rect id="Rectangle_78" data-name="Rectangle 78" width="5.515" height="41.205" rx="2.29" transform="translate(222.696 86.811)" fill="#3f3d56"/>
      <rect id="Rectangle_79" data-name="Rectangle 79" width="5.249" height="41.559" rx="2.29" transform="translate(222.785 142.433)" fill="#3f3d56"/>
      <path id="Path_190" data-name="Path 190" d="M377.46,474.88a.906.906,0,0,0,1.074.138A3.8,3.8,0,0,1,377.46,474.88Z" transform="translate(-219.722 -222.551)" fill="url(#linear-gradient)"/>
      <path id="Path_192" data-name="Path 192" d="M417.8,491l-1.06,5.771-.818,4.415-1.487,8.076-14.418,10.094s-1.3-1.113-3.444-2.866c-5.909-4.865-18.328-14.772-27.447-20.09a30.709,30.709,0,0,0-7.544-3.476Z" transform="translate(-219.482 -222.796)" fill="#feb9b9"/>
      <path id="Path_194" data-name="Path 194" d="M407.046,495.115s16.811,2.886,17.8-4.294-8.653-11.059-16.821-11.542-57.188,2.886-57.188,2.886-8.647,11.532,22.582,13.463Z" transform="translate(-219.301 -222.617)" fill="#3f3d56"/>
      <rect id="Rectangle_82" data-name="Rectangle 82" width="87.944" height="104.282" transform="translate(136.564 35.591)" fill="#2f2e41"/>
      <rect id="Rectangle_83" data-name="Rectangle 83" width="87.944" height="104.282" transform="translate(136.564 36.064)" opacity="0.1"/>
      <path id="Path_198" data-name="Path 198" d="M250.784,435.936c-1.448.365-3.3,1.766-5.357,3.791-8.863,8.775-21.558,29.368-21.558,29.368-16.23-19.333,1.73-34.607,9.385-39.856,1.861-1.271,3.112-1.97,3.112-1.97Z" transform="translate(-217.289 -221.829)" fill="#feb9b9"/>
      <path id="Path_199" data-name="Path 199" d="M416.971,288.22s4.327,30.273,19.223,37.482-19.223,20.681-19.223,20.681L370.36,329.07s26.433-8.653,21.144-34.124Z" transform="translate(-219.614 -219.717)" fill="#feb9b9"/>
      <path id="Path_200" data-name="Path 200" d="M366.073,473.16l-1.054,5.752-.856,4.432-1.487,8.076L348.257,501.5s-1.3-1.1-3.444-2.855c-5.909-4.865-18.327-14.772-27.46-20.09a30.529,30.529,0,0,0-7.544-3.476Z" transform="translate(-218.695 -222.526)" fill="#feb9b9"/>
      <path id="Path_202" data-name="Path 202" d="M353.418,480.074s15.087.107,15.995-7.093-8.222-11.059-15.995-11.542-55,3.11-55,3.11-6.7,13.6,23.006,15.524Z" transform="translate(-218.512 -222.347)" fill="#2f2e41"/>
      <path id="Path_204" data-name="Path 204" d="M459.9,593.18c-.66-.325-1.32-.66-1.97-.984l-1.773-2.236L432.9,560.474v.512c-.157,4.924-1.831,43.943-14.89,47.547-13.935,3.841-30.746,4.806-38.409-21.144s-21.665-82.656-36.045-86.023l21.39-17.539s14.162,16.565,19.932,32.42c-.216-.984-10-46.68-1.97-54.765h70.174s10.833,30.855,18.258,46.139c5.781,11.867,14.457,39.924,20.043,58.912C496.915,585.281,477.484,601.836,459.9,593.18Z" transform="translate(-219.207 -222.348)" fill="#3f3d56"/>
      <path id="Path_205" data-name="Path 205" d="M458.453,469.192c-10.833,6.411-58.39,3.8-73.861,2.757l-4.215-.305c-.453,0,.069-.256.069-.256l.434-4.363,11.532-29.308,61.748-35.808c-1.251,3.772-1.664,9.543-1.566,16.151C452.879,439.293,458.453,469.192,458.453,469.192Z" transform="translate(-219.764 -221.443)" opacity="0.1"/>
      <path id="Path_206" data-name="Path 206" d="M458.445,467.723c-10.833,6.411-58.39,3.8-73.861,2.758l-4.215-.3-.7-.059.768-.2,3.8-.984,8.164-32.676,61.748-35.8c-1.25,3.772-1.664,9.543-1.565,16.151C452.871,437.834,458.445,467.723,458.445,467.723Z" transform="translate(-219.755 -221.422)" fill="#efefef"/>
      <path id="Path_207" data-name="Path 207" d="M452.556,416.6c-12.557,2.9-40.19,11.39-50.807,31.908-7.081,13.66-13.039,19.519-17.195,21.971l-4.215-.3a2.424,2.424,0,0,0,.069-.256l3.8-.985,8.164-32.676,61.748-35.8C452.885,404.222,452.457,409.993,452.556,416.6Z" transform="translate(-219.766 -221.421)" opacity="0.1"/>
      <path id="Path_208" data-name="Path 208" d="M236.613,427.29l14.418,8.647c-1.448.365-3.3,1.766-5.357,3.792-1.2-3.506-8.741-8.4-12.173-10.488C235.361,427.989,236.613,427.29,236.613,427.29Z" transform="translate(-217.536 -221.828)" opacity="0.1"/>
      <path id="Path_209" data-name="Path 209" d="M377.715,471.828a.856.856,0,0,1-.984-.138,3.417,3.417,0,0,0,.984.138Z" transform="translate(-219.711 -222.503)" opacity="0.1"/>
      <path id="Path_210" data-name="Path 210" d="M408.162,323.2s-12.98,1.437-22.109-8.174c0,0-38.409,11.059-51.417,36.044S233.2,425.075,233.2,425.075s15.383,8.647,13.935,12.97L305.288,404.4s20.681-14.89,26.423-18.258,37.492-24.029,44.218,32.194,0,49.5,0,49.5,9.612,3.369,23.547-23.547,57.178-33.159,57.178-33.159l2.4-28.343s8.578-18.79,1.97-26.59a16.742,16.742,0,0,1-3.851-8.135c-1.093-7.2,0-19.194,15.3-29.16,23.547-15.383,32.676-27.87,32.676-27.87s.482-9.139-13.935-13.463-73.044-27.87-73.044-27.87l-1.97,8.174,46.257,32.647S439.4,309.232,421.1,308.779C421.1,308.779,424.5,322.714,408.162,323.2Z" transform="translate(-217.531 -219.132)" fill="#00bfa6"/>
      <path id="Path_211" data-name="Path 211" d="M419.457,301.419A93.862,93.862,0,0,1,416.8,289.68l-25.467,6.728a27.92,27.92,0,0,1-.581,14.693,27.388,27.388,0,0,0,28.707-9.683Z" transform="translate(-219.924 -219.739)" opacity="0.1"/>
      <circle id="Ellipse_10" data-name="Ellipse 10" cx="27.388" cy="27.388" r="27.388" transform="translate(150.992 36.074)" fill="#feb9b9"/>
      <path id="Path_213" data-name="Path 213" d="M428.67,507.07s15.855,31.239,11.049,40.84" transform="translate(-220.499 -223.041)" opacity="0.1"/>
      <path id="Path_221" data-name="Path 221" d="M412.061,218.867c7.6.867,14.822,4.126,22.306,5.909a11.07,11.07,0,0,0,5.771.216c2.9-.9,5.269-3.939,8.282-3.851,1.854.059,3.5,1.32,5.022,2.531a61.769,61.769,0,0,1,6.893,6.146c5.16,5.6,8.361,13.147,13.068,19.243s11.42,13.245,18.107,10.449c-4.549,17.726-18.737,28.816-34.858,29.919-6.431.441-13.019-.9-19.243.984a16.673,16.673,0,0,1-4.856,1.181c-3.585,0-6.47-3.289-8.706-6.49-5.24-7.524-9.385-16.062-15.284-22.926-1.97-2.275-4.244-4.432-7-4.845s-5.288.906-7.74,2.177c-4.048,2.1-8.183,4.264-11.325,7.879s-5.121,8.952-3.822,13.788c.7,2.62,2.3,4.984,2.324,7.721.059,4.372-3.8,7.564-4.56,11.818a44.3,44.3,0,0,0-.187,5.377c-.335,5.828-4.15,10.6-8.123,14.27-1.556,1.418-3.267,2.954-3.723,5.15-.305,1.506,0,3.09-.2,4.619-.581,3.782-4.353,5.7-7.692,6.195a22.187,22.187,0,0,1-11.542-1.369c4.668-2.207,7.544-8.489,6.461-14.113-1.487-7.8-9.326-13.4-8.653-21.34a24.72,24.72,0,0,1,2.167-7.021,64.331,64.331,0,0,0,3.7-13.3c.591-3.516.877-7.248-.227-10.606-.985-3.053-3.043-5.485-4.787-8.066a45.862,45.862,0,0,1-5.544-11.355,7.988,7.988,0,0,1-.53-3.762,7.761,7.761,0,0,1,2.413-3.89c4.284-4.5,8.863-9.178,14.605-10.469a32.878,32.878,0,0,1,8.292-.315,97.872,97.872,0,0,0,14.407-.611c3.939-.463,10.6-.4,13.935-2.954,3.112-2.384,4.865-5.377,8.7-6.893a25.606,25.606,0,0,1,12.152-1.389Z" transform="translate(-219.116 -218.66)" fill="#2f2e41"/>
    </g>
    <ellipse id="Ellipse_9" data-name="Ellipse 9" cx="39.729" cy="6.719" rx="39.729" ry="6.719" transform="translate(970.687 767.504)" fill="#00bfa6"/>
    <path id="Path_179" data-name="Path 179" d="M916.636,840.939a11.567,11.567,0,0,0,3.785-5.721c.494-2.262-.474-4.945-2.649-5.82-2.431-.929-5.033.761-7,2.46s-4.228,3.646-6.808,3.28a10.355,10.355,0,0,0,3.215-9.693,4.083,4.083,0,0,0-.9-1.976c-1.344-1.443-3.8-.83-5.4.316-5.138,3.606-6.57,10.6-6.6,16.865-.524-2.262-.079-4.624-.1-6.916s-.642-4.945-2.608-6.155a7.846,7.846,0,0,0-3.952-.929c-2.312-.088-4.881.148-6.462,1.837-1.976,2.094-1.443,5.612.257,7.9s4.3,3.764,6.689,5.355a14.821,14.821,0,0,1,4.768,4.555,4.11,4.11,0,0,1,.353.82h14.436a40.57,40.57,0,0,0,8.972-6.181Z" transform="translate(110.211 -77.703)" fill="#00bfa6"/>
    <ellipse id="Ellipse_9-2" data-name="Ellipse 9" cx="26.219" cy="4.434" rx="26.219" ry="4.434" transform="translate(444.041 775.038)" fill="#efefef"/>
    <path id="Path_179-2" data-name="Path 179" d="M904.14,834.711a7.637,7.637,0,0,0,2.5-3.776,3.367,3.367,0,0,0-1.747-3.841c-1.6-.613-3.319.5-4.616,1.624s-2.791,2.406-4.493,2.165a6.834,6.834,0,0,0,2.119-6.4,2.693,2.693,0,0,0-.593-1.3c-.883-.952-2.5-.547-3.566.208-3.391,2.384-4.336,6.99-4.355,11.131a20.956,20.956,0,0,1-.065-4.564c-.013-1.513-.424-3.26-1.722-4.062a5.179,5.179,0,0,0-2.608-.613c-1.526-.058-3.221.1-4.265,1.213-1.3,1.383-.952,3.7.17,5.217a16.531,16.531,0,0,0,4.415,3.532,9.779,9.779,0,0,1,3.15,3,2.712,2.712,0,0,1,.235.541h9.526a26.78,26.78,0,0,0,5.92-4.082Z" transform="translate(-423.036 -62.49)" fill="#efefef"/>
    <ellipse id="Ellipse_12" data-name="Ellipse 12" cx="26.219" cy="4.434" rx="26.219" ry="4.434" transform="translate(295.762 775.038)" fill="#efefef"/>
    <path id="Path_223" data-name="Path 223" d="M904.14,834.711a7.637,7.637,0,0,0,2.5-3.776,3.367,3.367,0,0,0-1.747-3.841c-1.6-.613-3.319.5-4.616,1.624s-2.791,2.406-4.493,2.165a6.834,6.834,0,0,0,2.119-6.4,2.693,2.693,0,0,0-.593-1.3c-.883-.952-2.5-.547-3.566.208-3.391,2.384-4.336,6.99-4.355,11.131a20.956,20.956,0,0,1-.065-4.564c-.013-1.513-.424-3.26-1.722-4.062a5.179,5.179,0,0,0-2.608-.613c-1.526-.058-3.221.1-4.265,1.213-1.3,1.383-.952,3.7.17,5.217a16.531,16.531,0,0,0,4.415,3.532,9.779,9.779,0,0,1,3.15,3,2.712,2.712,0,0,1,.235.541h9.526a26.78,26.78,0,0,0,5.92-4.082Z" transform="translate(-571.315 -62.49)" fill="#efefef"/>
    <rect id="Rectangle_22" data-name="Rectangle 22" width="796.939" height="1.608" transform="translate(282 781.374)" fill="none"/>
    <path id="Path_177" data-name="Path 177" d="M844.533,156.929s-83.194-5.02-73.392,53.276c0,0-1.976,10.305,7.39,14.979,0,0,.148-4.318,8.537-2.846a39.026,39.026,0,0,0,9.041.434,18.832,18.832,0,0,0,11.046-4.516h0s23.387-9.663,32.477-47.881c0,0,6.728-8.339,6.462-10.483l-14.039,6s4.8,10.128.988,18.542c0,0-.455-18.18-3.152-17.785-.543.079-7.292,3.507-7.292,3.507s8.25,17.636,2.026,30.462c0,0,2.361-21.737-4.6-29.187l-9.88,5.77s9.644,18.22,3.1,33.09c0,0,1.677-22.8-5.188-31.687l-8.952,6.985s9.06,17.953,3.537,30.286c0,0-.721-26.539-5.474-28.545,0,0-7.835,6.916-9.031,9.742,0,0,6.2,13.042,2.351,19.919,0,0-2.361-17.686-4.3-17.785,0,0-7.806,11.718-8.616,19.761,0,0,.336-11.946,6.728-20.867,0,0-7.548,1.294-11.955,6.181,0,0,1.215-8.28,13.882-9.011,0,0,6.452-8.892,8.171-9.426,0,0-12.588-1.06-20.225,2.332,0,0,6.719-7.815,22.538-4.259l8.843-7.223s-16.579-2.263-23.614.238c0,0,8.092-6.916,26-1.877l9.624-5.751s-14.139-3.044-22.557-1.976c0,0,8.892-4.792,25.383.405l6.916-3.09s-10.354-2.035-13.388-2.361-3.191-1.156-3.191-1.156a35.915,35.915,0,0,1,19.454,2.164S844.78,157.848,844.533,156.929Z" transform="translate(195.505 10.283)" fill="#00bfa6"/>
    <path id="Path_178" data-name="Path 178" d="M758.658,130.694s-37.546-2.263-33.159,24.079c0,0-.883,4.654,3.339,6.768,0,0,.069-1.976,3.863-1.294a17.3,17.3,0,0,0,4.08.2,8.458,8.458,0,0,0,4.99-2.056h0s10.572-4.367,14.682-21.638c0,0,3.033-3.764,2.914-4.733l-6.343,2.707s2.164,4.575.464,8.378c0,0-.208-8.212-1.422-8.023-.247,0-3.3,1.589-3.3,1.589s3.735,7.973.919,13.764c0,0,1.067-9.821-2.085-13.191l-4.466,2.649s4.357,8.23,1.4,14.95c0,0,.761-10.305-2.342-14.316l-4.042,3.162s4.091,8.112,1.6,13.686c0,0-.336-12-2.48-12.9,0,0-3.537,3.122-4.081,4.407,0,0,2.806,5.928,1.068,9,0,0-1.068-7.993-1.976-8.035,0,0-3.528,5.3-3.893,8.892a19.285,19.285,0,0,1,3.044-9.426,10.631,10.631,0,0,0-5.4,2.8s.554-3.745,6.274-4.07c0,0,2.964-4.021,3.7-4.268,0,0-5.691-.474-9.14,1.06,0,0,3.033-3.527,10.177-1.927l3.952-3.261s-7.5-1-10.675.1c0,0,3.656-3.122,11.748-.849l4.348-2.6s-6.393-1.373-10.2-.883c0,0,4.021-2.164,11.472.177l3.112-1.393s-4.68-.919-6.057-1.068-1.443-.524-1.443-.524a16.193,16.193,0,0,1,8.793.988S758.773,131.105,758.658,130.694Z" transform="translate(167.391 5.656)" fill="#3f3d56"/>
    <path id="Path_224" data-name="Path 224" d="M758.658,130.694s-37.546-2.263-33.159,24.079c0,0-.883,4.654,3.339,6.768,0,0,.069-1.976,3.863-1.294a17.3,17.3,0,0,0,4.08.2,8.458,8.458,0,0,0,4.99-2.056h0s10.572-4.367,14.682-21.638c0,0,3.033-3.764,2.914-4.733l-6.343,2.707s2.164,4.575.464,8.378c0,0-.208-8.212-1.422-8.023-.247,0-3.3,1.589-3.3,1.589s3.735,7.973.919,13.764c0,0,1.067-9.821-2.085-13.191l-4.466,2.649s4.357,8.23,1.4,14.95c0,0,.761-10.305-2.342-14.316l-4.042,3.162s4.091,8.112,1.6,13.686c0,0-.336-12-2.48-12.9,0,0-3.537,3.122-4.081,4.407,0,0,2.806,5.928,1.068,9,0,0-1.068-7.993-1.976-8.035,0,0-3.528,5.3-3.893,8.892a19.285,19.285,0,0,1,3.044-9.426,10.631,10.631,0,0,0-5.4,2.8s.554-3.745,6.274-4.07c0,0,2.964-4.021,3.7-4.268,0,0-5.691-.474-9.14,1.06,0,0,3.033-3.527,10.177-1.927l3.952-3.261s-7.5-1-10.675.1c0,0,3.656-3.122,11.748-.849l4.348-2.6s-6.393-1.373-10.2-.883c0,0,4.021-2.164,11.472.177l3.112-1.393s-4.68-.919-6.057-1.068-1.443-.524-1.443-.524a16.193,16.193,0,0,1,8.793.988S758.773,131.105,758.658,130.694Z" transform="translate(-411.608 407.793)" fill="#3f3d56"/>
  </g>
</svg>
