<svg xmlns="http://www.w3.org/2000/svg" width="884.999" height="656.019" viewBox="0 0 884.999 656.019"><g transform="translate(0 0.098)"><path d="M802.746,487.293l6.963-4.3c.662-.419,1.314-.867,1.986-1.286a66.511,66.511,0,0,1-55.166-62.456,65.821,65.821,0,0,1,5.742-30.3,66.623,66.623,0,0,1,42.7-36.84l-.345,27.406,15.055-29.83a.6.6,0,0,1,.186,0A66.5,66.5,0,0,1,889.4,413.026c.056,1.268,0,2.517,0,3.729,5.239-5.975,9.993-12.379,13.144-19.4,6.376-14.216,6.525-30.314,5.994-49.881-1.007-38.779-2.675-77.846-4.857-116.8a66.464,66.464,0,0,1-59.054-62.913c-.093-2.041-.065-4.046,0-6.041a9.993,9.993,0,0,1,.075-1.491c.131-1.93.308-3.841.606-5.724a5.445,5.445,0,0,1,.168-.932q.41-2.4.979-4.735c.149-.578.289-1.165.447-1.743a50.381,50.381,0,0,1,1.575-5.015c.2-.55.429-1.081.634-1.622.475-1.212.988-2.405,1.529-3.589.289-.625.569-1.24.876-1.864.075-.158.14-.317.224-.475h0A66.455,66.455,0,0,1,929.82,100.8l-.447,35.665,14.915-29.457a66.091,66.091,0,0,1,31.694,71.657h.075c-.1.475-.252.932-.364,1.4-.205.876-.429,1.743-.671,2.61-.317,1.109-.671,2.2-1.035,3.291-.28.811-.55,1.641-.858,2.442-.447,1.175-.932,2.321-1.473,3.468-.3.671-.569,1.352-.932,2.014q-1.277,2.573-2.8,5.034c-.345.569-.736,1.109-1.1,1.678-.708,1.1-1.426,2.191-2.2,3.253-.475.653-.988,1.277-1.491,1.92-.727.932-1.473,1.864-2.247,2.713-.55.625-1.109,1.24-1.687,1.864-.811.858-1.65,1.687-2.517,2.508-.569.55-1.147,1.1-1.743,1.622-.979.867-2,1.7-3.039,2.508-.522.41-1.025.839-1.566,1.23q-2.358,1.753-4.875,3.291c-.317.186-.653.345-.932.531-1.4.83-2.8,1.6-4.3,2.33-.625.308-1.277.578-1.92.867-1.2.541-2.414,1.063-3.654,1.538-.718.27-1.454.522-2.191.774-1.221.419-2.461.8-3.729,1.147-.746.205-1.482.41-2.237.587-1.361.326-2.75.6-4.148.83a.474.474,0,0,0-.27.056q1.38,24.647,2.452,49.322a66.464,66.464,0,0,1,92.286-28.851l-11.755,32.207,24.181-23.221a66.315,66.315,0,0,1,21.44,45.919A65.08,65.08,0,0,1,1049,323.863a66.474,66.474,0,0,1-122.274,18.112c0,1.669.121,3.346.168,5.015.438,17.264.988,38.741-7.616,57.926-5.826,13-15.213,23.565-24.488,33.027-6.031,6.162-12.286,12.118-18.7,17.889A66.5,66.5,0,0,1,852.077,475.8q-15.8,12.174-32.719,22.8l-6.852,4.419c-6.329,3.924-12.817,7.952-19.184,12.118,1.119-.112,2.228-.233,3.365-.28a66.53,66.53,0,0,1,65.476,43.281l-41.557,33.829,45.677-10.6a66.53,66.53,0,0,1-95.343,59.892c1.025,1.286,2.06,2.564,3.086,3.841,2.041,2.545,4.074,5.071,6.059,7.579,27.033,34.239,34.565,66.753,21.17,91.54l-16.276-8.8c13.051-24.125-6.525-55-19.417-71.274-1.948-2.461-3.943-4.941-5.957-7.457-17.273-21.44-36.849-45.789-36.355-75.628C723.948,536.13,767.658,509.031,802.746,487.293Z" transform="translate(-165.769 -98.18)" fill="#f2f2f2"/><ellipse cx="424.608" cy="19.576" rx="424.608" ry="19.576" transform="translate(0 616.77)" fill="#3f3d56"/><path d="M947.833,764.772c2.8-5.136-.373-11.429-3.99-16.015s-8.026-9.322-7.933-15.185c.13-8.39,9.033-13.339,16.155-17.786a79.047,79.047,0,0,0,14.5-11.662,21.243,21.243,0,0,0,4.465-5.966c1.463-3.281,1.426-7.01,1.333-10.608q-.466-17.954-1.771-35.87" transform="translate(-180.192 -135.726)" fill="none" stroke="#3f3d56" stroke-miterlimit="10" stroke-width="4"/><path d="M985.716,650.092a13.107,13.107,0,0,0-6.525-10.72l-2.927,5.8.084-7.01a13.08,13.08,0,1,0,9.322,11.932Z" transform="translate(-181.796 -134.771)" fill="#57b793"/><path d="M960.8,744.616a13.05,13.05,0,1,1,.625-10.534l-8.166,6.646,8.986-2.088A13.049,13.049,0,0,1,960.8,744.616Z" transform="translate(-180.208 -140.738)" fill="#57b793"/><path d="M954.665,716.807A13.05,13.05,0,0,1,941,704.343a12.864,12.864,0,0,1,1.128-5.957,13.107,13.107,0,0,1,8.39-7.252l-.065,5.4,2.964-5.873h0a13.088,13.088,0,1,1,1.221,26.148Z" transform="translate(-180.536 -138.368)" fill="#57b793"/><path d="M988.735,694.1a13.065,13.065,0,1,1,5.78-24.442L992.2,676l4.754-4.568a13.051,13.051,0,0,1,4.232,9.033,12.759,12.759,0,0,1-.336,3.6,13.05,13.05,0,0,1-12.118,10.04Z" transform="translate(-182.847 -136.831)" fill="#57b793"/><path d="M983.965,654.06c-3.02.336-5.957,1.277-8.986,1.464s-6.357-.541-8.278-2.9c-1.035-1.268-1.547-2.871-2.424-4.251a9.322,9.322,0,0,0-3.291-3.1,13.051,13.051,0,1,0,24.46,8.688C984.944,653.977,984.45,654.014,983.965,654.06Z" transform="translate(-181.807 -135.291)" opacity="0.1"/><path d="M988.732,694.644A13.051,13.051,0,0,1,976.288,676a9.694,9.694,0,0,1,2.629,2.638c.932,1.408,1.492,3.03,2.592,4.325,2.032,2.4,5.518,3.179,8.679,3.03s6.2-1.035,9.322-1.324c.429,0,.876-.075,1.314-.084a13.05,13.05,0,0,1-12.09,10.058Z" transform="translate(-182.845 -137.375)" opacity="0.1"/><path d="M954.665,717.37A13.05,13.05,0,0,1,941,704.907a12.864,12.864,0,0,1,1.128-5.957,10.741,10.741,0,0,1,2.8,2.657c1.016,1.436,1.65,3.086,2.8,4.409,2.209,2.461,5.919,3.328,9.266,3.244s6.357-.867,9.583-1.109a13.106,13.106,0,0,1-11.9,9.219Z" transform="translate(-180.536 -138.931)" opacity="0.1"/><path d="M960.771,745.22a13.076,13.076,0,1,1-23.854-10.72,13.572,13.572,0,0,1,2.871,2.563c1.24,1.52,2.06,3.235,3.5,4.661,2.675,2.619,6.991,3.729,10.832,3.8a56.072,56.072,0,0,0,6.646-.308Z" transform="translate(-180.183 -141.342)" opacity="0.1"/><path d="M927.54,766.244s10.319-.317,13.433-2.536,15.847-4.866,16.658-1.305,15.521,17.711,3.859,17.767-27.089-1.864-30.193-3.729S927.54,766.244,927.54,766.244Z" transform="translate(-179.625 -143.117)" fill="#656380"/><path d="M961.7,779.334c-11.652.093-27.089-1.864-30.193-3.729-2.358-1.436-3.309-6.609-3.617-9h-.345s.653,8.324,3.729,10.254,18.532,3.8,30.193,3.729c3.365,0,4.53-1.23,4.465-3C965.489,778.644,964.2,779.316,961.7,779.334Z" transform="translate(-179.625 -143.52)" opacity="0.2"/><path d="M315.264,722.091c-6.768-12.528.932-27.872,9.732-39.04s19.576-22.782,19.343-37.017C344,625.583,322.3,613.511,304.963,602.67a192.3,192.3,0,0,1-35.358-28.422c-4.26-4.353-8.39-9-10.869-14.551-3.58-8-3.486-17.087-3.253-25.849q1.119-43.812,4.325-87.457" transform="translate(-134.039 -121.803)" fill="none" stroke="#3f3d56" stroke-miterlimit="10" stroke-width="4"/><path d="M224.757,442.47a31.89,31.89,0,0,1,15.922-26.1l7.14,14.122-.214-17.1a31.9,31.9,0,1,1-22.848,29.1Z" transform="translate(-131.959 -119.476)" fill="#57b793"/><path d="M285.524,672.863a31.881,31.881,0,0,0,60.209-13.05,31.471,31.471,0,0,0-2.079-12.939,31.9,31.9,0,0,0-59.659.345l19.921,16.2L282,658.321A31.535,31.535,0,0,0,285.524,672.863Z" transform="translate(-135.844 -134.014)" fill="#57b793"/><path d="M300.461,605.181a31.9,31.9,0,0,0,10.114-62.568l.168,13.134-7.178-14.29h-.084a31.9,31.9,0,0,0-2.974,63.733Z" transform="translate(-135.036 -128.248)" fill="#57b793"/><path d="M217.4,549.911A31.9,31.9,0,1,0,203.3,490.252l5.593,15.446-11.55-11.158A31.75,31.75,0,0,0,187,516.558a31.107,31.107,0,0,0,.811,8.781A31.89,31.89,0,0,0,217.4,549.911Z" transform="translate(-129.398 -124.499)" fill="#57b793"/><path d="M229.095,452.24c7.364.811,14.523,3.095,21.906,3.552s15.5-1.305,20.172-7.047c2.517-3.095,3.775-7.01,5.9-10.384a22.634,22.634,0,0,1,8.035-7.56,31.9,31.9,0,1,1-59.659,21.17C226.69,452.026,227.9,452.11,229.095,452.24Z" transform="translate(-132.008 -120.745)" opacity="0.1"/><path d="M217.46,551.24A31.918,31.918,0,0,0,247.8,505.75a23.594,23.594,0,0,0-6.413,6.413c-2.275,3.43-3.645,7.392-6.32,10.543-4.969,5.835-13.451,7.746-21.151,7.4s-15.129-2.545-22.792-3.244c-1.063-.093-2.144-.168-3.216-.2a31.89,31.89,0,0,0,29.55,24.572Z" transform="translate(-129.462 -125.828)" opacity="0.1"/><path d="M300.56,606.553a31.89,31.89,0,0,0,30.594-44.9,25.793,25.793,0,0,0-6.74,6.525c-2.48,3.5-4.027,7.523-6.926,10.748-5.379,5.994-14.421,8.11-22.577,7.914-7.9-.168-15.5-2.107-23.351-2.713a31.918,31.918,0,0,0,29,22.428Z" transform="translate(-135.136 -129.62)" opacity="0.1"/><path d="M285.78,674.349a31.881,31.881,0,0,0,60.209-13.05,31.471,31.471,0,0,0-2.079-12.939,31.94,31.94,0,0,0-6.991,6.236c-3.03,3.729-5.034,7.886-8.539,11.335-6.525,6.395-17.05,9.042-26.418,9.322a136.8,136.8,0,0,1-16.183-.9Z" transform="translate(-136.1 -135.5)" opacity="0.1"/><path d="M414.2,653.37,291.149,678.539l-2.8-.28L180.22,667.353V530.322L312.589,507.95,408.6,519.136l.028.606.009.3Z" transform="translate(-12.223 -34.456)" fill="#00bfa6"/><path d="M422.064,654.228,299.017,679.4l-2.8-.28V538.638L416.5,520.6Z" transform="translate(-20.09 -35.314)" opacity="0.1"/><path d="M408.641,520.04l-.037.028L288.353,537.78,180.22,530.322,312.589,507.95,408.6,519.136l.028.606Z" transform="translate(-12.223 -34.456)" opacity="0.05"/><path d="M559.2,659.37,436.149,684.539l-2.8-.28L325.22,673.353V536.322L457.589,513.95,553.6,525.136l.028.606.009.3Z" transform="translate(-22.057 -34.863)" fill="#3f3d56"/><path d="M567.064,660.228,444.017,685.4l-2.8-.28V544.638L561.5,526.6Z" transform="translate(-29.924 -35.721)" opacity="0.1"/><path d="M553.641,526.04l-.037.028L433.353,543.78,325.22,536.322,457.589,513.95,553.6,525.136l.028.606Z" transform="translate(-22.057 -34.863)" opacity="0.05"/><path d="M468.2,515.37,345.149,540.539l-2.8-.28L234.22,529.353V392.322L366.589,369.95,462.6,381.136l.028.606.009.3Z" transform="translate(-15.885 -25.097)" fill="#3f3d56"/><path d="M476.064,516.228,353.017,541.4l-2.8-.28V400.638L470.5,382.6Z" transform="translate(-23.752 -25.955)" opacity="0.1"/><path d="M462.641,382.04l-.037.028L342.353,399.78,234.22,392.322,366.589,369.95,462.6,381.136l.028.606Z" transform="translate(-15.885 -25.097)" opacity="0.05"/><path d="M551.335,526.588l-64.218,13.144-1.464-.149-56.434-5.7V462.37L498.3,450.69l50.114,5.845.019.317V457Z" transform="translate(-29.11 -30.573)" fill="#3f3d56"/><path d="M555.441,527.036,491.224,540.18l-1.464-.149V466.715l62.782-9.415Z" transform="translate(-33.216 -31.021)" opacity="0.1"/><path d="M548.436,457l-.019.019-62.764,9.247-56.434-3.9L498.3,450.69l50.114,5.845.019.317Z" transform="translate(-29.11 -30.573)" opacity="0.05"/><path d="M366.335,377.588l-64.218,13.134-1.464-.14-56.434-5.7V313.37L313.3,301.69l50.114,5.845.019.317V308Z" transform="translate(-16.563 -20.468)" fill="#3f3d56"/><path d="M370.441,378.036l-64.218,13.134-1.464-.14V317.715l62.782-9.415Z" transform="translate(-20.669 -20.916)" opacity="0.1"/><path d="M363.436,308l-.019.019-62.764,9.247-56.434-3.9L313.3,301.69l50.114,5.845.019.317Z" transform="translate(-16.563 -20.468)" opacity="0.05"/><path d="M487.335,374.588l-64.218,13.134-1.464-.14-56.434-5.7V310.37L434.3,298.69l50.114,5.845.019.317V305Z" transform="translate(-24.77 -20.264)" fill="#00bfa6"/><path d="M491.441,375.036l-64.218,13.134-1.464-.14V314.715l62.782-9.415Z" transform="translate(-28.875 -20.712)" opacity="0.1"/><path d="M484.436,305l-.019.019-62.764,9.247-56.434-3.9L434.3,298.69l50.114,5.845.019.317Z" transform="translate(-24.77 -20.264)" opacity="0.05"/><path d="M523.335,297.588l-64.218,13.134-1.464-.14-56.434-5.7V233.37L470.3,221.69l50.114,5.845.019.317V228Z" transform="translate(-27.211 -15.042)" fill="#3f3d56"/><path d="M527.441,298.036l-64.218,13.134-1.464-.14V237.715l62.782-9.415Z" transform="translate(-31.317 -15.49)" opacity="0.1"/><path d="M520.436,228l-.019.019-62.764,9.247-56.434-3.9L470.3,221.69l50.114,5.845.019.317Z" transform="translate(-27.211 -15.042)" opacity="0.05"/><path d="M703.785,243.07c-.68,6.059-5.3,10.944-7.019,16.779-2.573,8.809,1.864,18.271,7.979,25.169a55.716,55.716,0,0,0,38.8,18.4,16.7,16.7,0,0,0,6.413-.7,13.927,13.927,0,0,0,4.875-3.337c4.586-4.614,7.057-11,8.035-17.441s.606-12.995.224-19.492a11.029,11.029,0,0,0-.727-3.934,9.993,9.993,0,0,0-2.526-3.1,58.727,58.727,0,0,0-10.86-7.9c-1.678-.932-3.477-1.864-4.549-3.477a11.382,11.382,0,0,1-1.408-4.167l-1.2-6.115a11.987,11.987,0,0,0-1.762-4.959c-2.116-2.853-6.171-3.244-9.723-3.384l-13.051-.513c-4.055-.158-9.387-1.324-13.349-.522-3.729.736-2.47,4.148-1.8,7.243A52.372,52.372,0,0,1,703.785,243.07Z" transform="translate(-163.923 -106.727)" fill="#ffc0c6"/><path d="M703.785,243.07c-.68,6.059-5.3,10.944-7.019,16.779-2.573,8.809,1.864,18.271,7.979,25.169a55.716,55.716,0,0,0,38.8,18.4,16.7,16.7,0,0,0,6.413-.7,13.927,13.927,0,0,0,4.875-3.337c4.586-4.614,7.057-11,8.035-17.441s.606-12.995.224-19.492a11.029,11.029,0,0,0-.727-3.934,9.993,9.993,0,0,0-2.526-3.1,58.727,58.727,0,0,0-10.86-7.9c-1.678-.932-3.477-1.864-4.549-3.477a11.382,11.382,0,0,1-1.408-4.167l-1.2-6.115a11.987,11.987,0,0,0-1.762-4.959c-2.116-2.853-6.171-3.244-9.723-3.384l-13.051-.513c-4.055-.158-9.387-1.324-13.349-.522-3.729.736-2.47,4.148-1.8,7.243A52.372,52.372,0,0,1,703.785,243.07Z" transform="translate(-163.923 -106.727)" opacity="0.1"/><path d="M788.333,535.026l-5.537,60.7c-1.445,15.922-2.918,31.909-5.752,47.625-.932,5.416-2.125,10.8-3.486,16.145-3.785,14.831-9.275,29.326-11.046,44.53-.056.438-.1.932-.149,1.333a39.92,39.92,0,0,1-1.864,9.881c-.932,2.321-2.247,4.437-3.207,6.73-1.864,4.586-2.163,9.657-2.4,14.626a63.053,63.053,0,0,0-21.71-7.457c-3.729-.55-7.784-.932-10.254-3.729-2.8-3.039-2.47-7.69-2-11.773q2.2-19.017,4.381-38.014a99.076,99.076,0,0,1,2.8-16.145c.5-1.762,1.109-3.5,1.724-5.229.848-2.386,1.706-4.773,2.349-7.224a87,87,0,0,0,1.846-11.96c1.5-12.752,3.309-25.477,4.894-38.219l.084-.671c2.377-19.315,4.185-38.723,3.663-58.177-.075-2.88-.2-5.761-.382-8.651-.261-4.185-.643-6.4,2.8-9.023,3.831-2.89,8.874-4.913,13.256-6.8,2.358-1.025,28.329-10.254,28.9-8.222a50.609,50.609,0,0,1,1.864,13.256,147.49,147.49,0,0,1-.764,16.472Z" transform="translate(-165.591 -125.778)" fill="#605d82"/><path d="M777.708,649.988c-.932,5.416-2.125,10.8-3.486,16.145-3.785,14.831-9.275,29.326-11.046,44.53-.056.438-.1.932-.149,1.333-11.578-16.537-21.328-34.323-32.626-51.037.848-2.386,1.706-4.773,2.349-7.224a87,87,0,0,0,1.939-12.034c1.5-12.752,3.309-25.477,4.894-38.219l.084-.671a39.588,39.588,0,0,0,2.8,7.84c7.588,15.418,25.616,23.211,34.435,37.968Q777.335,649.307,777.708,649.988Z" transform="translate(-166.255 -132.411)" opacity="0.1"/><path d="M680.366,502.538c.382,12.361,2.358,24.619,4.335,36.83l4.074,25.169c2.228,13.8,4.558,27.863,11.084,40.214,4.885,9.247,11.913,17.133,18.28,25.421,15.642,20.377,27.4,43.468,42.228,64.442,4.316,6.1,10.478,12.7,17.833,11.419,4.829-.83,8.334-4.857,12.118-7.952,4.474-3.654,9.862-6.329,13.386-10.916s4.214-12.193-.559-15.456c-1.631-1.109-3.617-1.529-5.463-2.237-7.392-2.8-12.184-10.03-15.222-17.339s-4.894-15.148-8.949-21.943c-8.818-14.756-26.856-22.549-34.444-37.977-4.251-8.632-4.661-18.644-4.978-28.217l-.83-24.526c-.093-2.685-.158-5.472.932-7.924,2.9-6.525,11.662-7.141,18.765-7.97a64.089,64.089,0,0,0,23-7.252c4.092-2.209,8.082-5.024,10.254-9.126,1.995-3.729,2.265-8.119,2.5-12.351l2.461-44.456c.214-3.822.4-7.784-.932-11.363-3.384-9-14.756-11.951-24.367-11.522-17.879.8-34.379,8.492-51.27,13.694a131.012,131.012,0,0,1-12.706,3.309c-3.729.755-8.39.447-11.969,1.659-6.413,2.163-6.255,16.2-7.159,22.018a184.833,184.833,0,0,0-2.4,34.351Z" transform="translate(-162.858 -120.519)" fill="#605d82"/><path d="M782.461,726.229c1.575,1.594,2.088,3.924,2.5,6.124A208.956,208.956,0,0,1,788.5,769.37a6.134,6.134,0,0,0,.662,3.356,4.28,4.28,0,0,0,1.743,1.4c4.558,2.172,9.844-.858,13.647-4.185,7.038-6.162,12.995-14.439,13.4-23.789.1-2.405-.168-4.838.252-7.215.615-3.524,2.675-6.591,4.484-9.667a82.077,82.077,0,0,0,7.457-16.611c.69-2.181,1.156-4.922-.559-6.441a5.994,5.994,0,0,0-2.023-1.053l-20.6-7.644c-1.79-.662-6.227,10.739-6.926,11.988-1.724,3.048-3.44,4.773-6.9,5.481s-7.728-.317-11.028,1.445C776.514,719.406,779.3,723.05,782.461,726.229Z" transform="translate(-169.544 -138.832)" fill="#535070"/><path d="M746.936,735.612a6.275,6.275,0,0,0-1.566-1.986,7.019,7.019,0,0,0-3.16-1.072c-3.915-.671-8.557-1.109-11.27,1.808-2.536,2.731-2.1,7.178-4.214,10.254a31.887,31.887,0,0,0-2.163,2.8,10.5,10.5,0,0,0-.932,5.015c-.112,4.745-.224,9.508.112,14.244.27,3.971.932,8.138,3.421,11.251,3.99,5,11.186,5.714,17.562,6.031l5.174.27a10.254,10.254,0,0,0,4.232-.391,6.945,6.945,0,0,0,3.654-4.018c2.694-6.693-1.566-13.9-4.195-20.61C750.563,751.477,751.1,742.911,746.936,735.612Z" transform="translate(-165.788 -141.177)" fill="#535070"/><path d="M701.462,205.13a4.223,4.223,0,0,1,.289-1.995c.755-1.333,2.731-.932,4.223-.6,5.994,1.51,12.314.14,18.494.494s13.134,3.44,14.374,9.5a44.94,44.94,0,0,0,11.4-11.708c1.715-2.563,3.207-5.5,2.974-8.576-.336-4.437-4.055-7.756-7.457-10.571l-10.254-8.39a15.577,15.577,0,0,0-4.6-2.927c-2.368-.811-4.959-.419-7.457-.419-7.457,0-15.456-3.4-22.1,0-2.8,1.426-4.875,3.878-6.889,6.264l-9.163,10.851a5.788,5.788,0,0,0-1.473,2.489c-.261,1.324.419,2.629.662,3.962.429,2.424-.615,5.015.186,7.346,1.333,3.859,6.031,4.409,8.9,6.628,1.063.82,2.741,3.626,4.018,3.589C699.831,211.021,701.4,206.92,701.462,205.13Z" transform="translate(-163.091 -102.951)" fill="#3f3d56"/><circle cx="29.364" cy="29.364" r="29.364" transform="translate(524.556 75.453)" fill="#ffc0c6"/><path d="M721.669,277.261a14.225,14.225,0,0,0-13.806-9.527,4.148,4.148,0,0,1-2.554-.326,3.533,3.533,0,0,1-1.053-1.305,51.951,51.951,0,0,1-4.279-10.123c-.466-1.557-1.109-3.393-2.685-3.794a3.6,3.6,0,0,0-3.412,1.492,32.618,32.618,0,0,1-2.442,3.067c-3.729,3.3-10.254.289-14.16,3.319-.643.494-1.175,1.128-1.864,1.585a8.485,8.485,0,0,1-2.153.932,206.372,206.372,0,0,0-22.26,8.7c2.61,15.7,5.276,31.694,11.391,46.376,2.908,6.991,6.2,13.843,8.529,21.049,5.164,15.968,5.388,33.055,5.453,49.844,0,11.484,0,23.211-3.729,34.08a32.984,32.984,0,0,0-2.1,7.457c-.233,2.554.531,5.444,2.629,6.973a8.865,8.865,0,0,0,4.055,1.426c6.441.932,12.929-.764,19.268-2.237,16.994-3.934,34.332-6.19,51.624-8.39l28.991-3.729a16.957,16.957,0,0,0,6-1.557c5.3-2.9,5.807-10.879,2.508-15.95-1.575-2.433-3.8-4.428-5.136-7s-1.436-6.19.848-7.97c4.661-3.635,3.263-10.375,3.486-16.267q.932-24.721-.252-49.405a96.67,96.67,0,0,1-.168-10.254c.326-5.8,1.762-11.475,3.2-17.115l8.809-34.677c-2.3-3.635-6.712-5.947-10.879-6.991s-8.52-1.352-12.631-2.629c-8.39-2.61-15.922-9.229-24.712-8.613a4.521,4.521,0,0,0-1.92.466c-1.976,1.128-1.669,3.98-1.79,6.255-.28,5.043-3.99,9.247-8.073,12.2s-8.763,5.1-12.519,8.464a5.593,5.593,0,0,0-2.219,4.176Z" transform="translate(-160.87 -108.189)" fill="#3f3d56"/><path d="M600.865,314.055a34.486,34.486,0,0,1-6.171,3.179c-2.051.811-4.241,1.454-5.919,2.871a9.367,9.367,0,0,0-2.06,2.545,11.307,11.307,0,0,0,10.422,16.845,22.721,22.721,0,0,0,7.709-2.3l20.713-9.014c3.505-1.519,7.29-3.291,8.949-6.74a1.622,1.622,0,0,0,.2-1.072,1.761,1.761,0,0,0-.857-.932A46.393,46.393,0,0,1,621.8,308.061c-.848-1.156-1.864-3.878-3.095-4.577C614.325,301.051,604.379,311.78,600.865,314.055Z" transform="translate(-156.411 -112.086)" fill="#ffc0c6"/><path d="M835.924,307l7.635,8.725c1.641,1.864,3.281,3.729,4.773,5.742a66.808,66.808,0,0,1,8.744,16.472c1.659,4.353,3.039,9,2.461,13.619a33.557,33.557,0,0,1-1.911,6.926,85.643,85.643,0,0,1-5.192,12.491,71.089,71.089,0,0,1-5.807,8.735,204.226,204.226,0,0,1-19.361,22.139c-2.61,2.582-3.729,6.768-4.838,10.254-2.1,6.441-7.085,11.466-11.9,16.22a32.8,32.8,0,0,1-5.118,4.4,16.593,16.593,0,0,1-9.322,2.647,10.253,10.253,0,0,1-4.185-.867c-3.3-1.566-4.978-5.379-5.323-9.014a19.3,19.3,0,0,1,1.6-9.657c4.381-9.7,15.633-13.908,23.584-20.993,4.661-4.148,8.231-9.368,11.755-14.523a50.386,50.386,0,0,0,5.938-10.412c1.771-4.745,1.081-10.357,2.638-15.167.653-2.041,1.864-3.878,2.526-5.9s.886-4.419-.354-6.162a8.9,8.9,0,0,0-3.458-2.536c-5.08-2.573-10.767-5.891-11.736-11.512a12.323,12.323,0,0,1,2.275-8.79,36.358,36.358,0,0,1,6.4-6.712C829.958,311.13,833.7,308.92,835.924,307Z" transform="translate(-170.059 -112.349)" fill="#ffc0c6"/><path d="M594.173,327.348c-1.342-2.722-3.03-5.5-5.752-6.852a10.59,10.59,0,0,0-8.39,0,31.808,31.808,0,0,0-7.346,4.437l-6.581,4.857A16.194,16.194,0,0,0,562.2,333.4a15.017,15.017,0,0,0-2.032,5.593c-.932,4.54-1.687,9.21-1.035,13.806,1.044,7.457,5.518,13.908,10.44,19.576,3.076,3.524,6.879,7.085,11.559,7.243,2.023.065,4.269-.736,5.108-2.573a6.368,6.368,0,0,0,.457-2.293c.5-8.278-2.461-16.36-5.91-23.9-.932-2.051-1.939-4.176-1.864-6.423a1.734,1.734,0,0,1,.28-1.081,1.808,1.808,0,0,1,1.119-.55c4.726-.932,12.873,2.741,16.183-2.508C598.647,336.819,595.7,330.434,594.173,327.348Z" transform="translate(-154.622 -113.206)" fill="#ffc0c6"/><path d="M699.8,195.22a4.344,4.344,0,0,1,.3-1.995c.755-1.342,2.731-.932,4.223-.6,5.994,1.51,12.314.14,18.494.494s13.125,3.44,14.374,9.5a45.239,45.239,0,0,0,11.4-11.708c1.715-2.573,3.207-5.509,2.974-8.585-.336-4.437-4.064-7.756-7.457-10.562l-10.254-8.39a15.53,15.53,0,0,0-4.6-2.927c-2.377-.811-4.959-.419-7.457-.419-7.457,0-15.456-3.4-22.1,0-2.8,1.426-4.875,3.878-6.889,6.264l-9.173,10.851a5.807,5.807,0,0,0-1.464,2.489c-.261,1.324.419,2.629.662,3.962.429,2.424-.615,5.015.186,7.336,1.333,3.869,6.031,4.419,8.9,6.637,1.063.82,2.741,3.626,4.018,3.589C698.153,201.111,699.719,197.01,699.8,195.22Z" transform="translate(-162.98 -102.279)" fill="#3f3d56"/><path d="M633.047,283.5a12.175,12.175,0,0,0-3.076,2.862c-1.072,1.631-1.3,3.729-2.219,5.407-1.976,3.673-6.609,4.987-9.49,8a2.974,2.974,0,0,0-.932,1.566,3.458,3.458,0,0,0,.774,2.256l13.927,21.888c4.661.41,9.079-2.5,13.722-2.107,1.724.14,3.505.736,5.164.224a15.01,15.01,0,0,0,3.309-2.023c2.8-1.753,6.451-1.958,8.772-4.26s2.517-5.686,2.489-8.828a34.838,34.838,0,0,0-.83-8.11c-2.051-8.39-8.474-14.859-12.5-22.3-1.967-3.626-3.03-5.742-7.178-3.253S636.971,280.629,633.047,283.5Z" transform="translate(-158.586 -110.093)" fill="#3f3d56"/><path d="M813.861,271.8a32.691,32.691,0,0,1,7.01,6.134c2.116,2.731,3.319,6.087,5.36,8.884s4.661,4.81,6.9,7.308c3.4,3.785,5.7,8.39,7.961,12.967a194.464,194.464,0,0,1-18.01,20.322,5.771,5.771,0,0,1-2.741,1.79,4.391,4.391,0,0,1-3.859-1.575c-1.007-1.044-1.715-2.349-2.675-3.44a13.749,13.749,0,0,0-8.511-4.111,58.465,58.465,0,0,0-9.648-.14,3.728,3.728,0,0,1-2.06-.345,3.4,3.4,0,0,1-1.119-1.286c-3.729-6.413-2.563-14.467-1.23-21.794l3.048-16.779a37.7,37.7,0,0,1,2.545-9.322c1.156-2.47,3.729-6.665,6.917-5.919S811.167,269.863,813.861,271.8Z" transform="translate(-170.294 -109.46)" fill="#3f3d56"/><path d="M396.335,300.588l-64.218,13.134-1.464-.14-56.434-5.7V236.37L343.3,224.69l50.114,5.845.019.317V231Z" transform="translate(-18.598 -15.245)" fill="#00bfa6"/><path d="M400.441,301.036l-64.218,13.134-1.464-.14V240.715l62.782-9.415Z" transform="translate(-22.704 -15.694)" opacity="0.1"/><path d="M393.436,231l-.019.019-62.764,9.247-56.434-3.9L343.3,224.69l50.114,5.845.019.317Z" transform="translate(-18.598 -15.245)" opacity="0.05"/><path d="M432.335,224.588l-64.218,13.144-1.464-.149-56.434-5.7V160.37L379.3,148.69l50.114,5.845.019.317V155Z" transform="translate(-21.039 -10.091)" fill="#3f3d56"/><path d="M436.441,225.036,372.224,238.18l-1.464-.149V164.715l62.782-9.415Z" transform="translate(-25.145 -10.539)" opacity="0.1"/><path d="M429.436,155l-.019.019-62.764,9.247-56.434-3.9L379.3,148.69l50.114,5.845.019.317Z" transform="translate(-21.039 -10.091)" opacity="0.05"/></g></svg>