<svg xmlns="http://www.w3.org/2000/svg" xmlns:xlink="http://www.w3.org/1999/xlink" width="947.573" height="688.986" viewBox="0 0 947.573 688.986"><defs><linearGradient id="a" x1="0.5" y1="1" x2="0.5" gradientUnits="objectBoundingBox"><stop offset="0" stop-color="gray" stop-opacity="0.251"/><stop offset="0.54" stop-color="gray" stop-opacity="0.122"/><stop offset="1" stop-color="gray" stop-opacity="0.102"/></linearGradient><linearGradient id="b" x1="0.5" y1="1" x2="0.5" y2="0" xlink:href="#a"/></defs><g transform="translate(-0.004 0)"><ellipse cx="47.181" cy="16.775" rx="47.181" ry="16.775" transform="translate(19.784 522.729)" opacity="0.1"/><ellipse cx="47.181" cy="16.775" rx="47.181" ry="16.775" transform="translate(781.99 592.084)" opacity="0.1"/><path d="M705.543,140.753c-71.8,27.732-149.625,29.021-221.916,2.915-102.455-36.99-236.259-46.457-285.84,123.047-84.621,289.594,88.5,392.961,88.5,392.961s120.866,27.092,187.789,76.044c95.063,69.534,211.484,92.778,321.153,60.171,70.131-20.854,130.239-55.065,147.423-111.042,48.061-156.555,17.551-250.654,104.531-291.932s38.583-194.195-23.276-197.665-207.594,32-252.678-38.552C755.156,131.652,730.57,131.076,705.543,140.753Z" transform="translate(-146.832 -121.43)" opacity="0.1"/><path d="M937.561,710.737s12.582-42.819-2.37-74.335a67.637,67.637,0,0,1-5.473-42.431,113.745,113.745,0,0,1,6.008-19.921" transform="translate(-110.298 -99.498)" fill="none" stroke="#535461" stroke-miterlimit="10" stroke-width="2"/><path d="M926.51,555.5c0,5.242,9.5,20.466,9.5,20.466s9.5-15.213,9.5-20.466a9.5,9.5,0,1,0-19.008,0Z" transform="translate(-110.393 -100.857)" fill="#00bfa6"/><path d="M911.6,583.468c2.852,4.4,19.1,12.015,19.1,12.015s-.294-17.939-3.145-22.343a9.5,9.5,0,0,0-15.947,10.327Z" transform="translate(-111.188 -99.752)" fill="#00bfa6"/><path d="M912.421,630.991c4.687,2.359,22.552.734,22.552.734s-9.31-15.339-14-17.7a9.5,9.5,0,1,0-8.555,16.964Z" transform="translate(-111.328 -97.61)" fill="#00bfa6"/><path d="M920.928,666.692c4.194,3.145,22.1,4.529,22.1,4.529s-6.584-16.691-10.8-19.805a9.5,9.5,0,1,0-11.3,15.276Z" transform="translate(-110.849 -95.84)" fill="#00bfa6"/><path d="M949.755,595.974c-3.764,3.659-21.3,7.444-21.3,7.444s4.3-17.415,8.063-21.074a9.5,9.5,0,1,1,13.242,13.63Z" transform="translate(-110.298 -99.226)" fill="#00bfa6"/><path d="M959.3,637.959c-4.687,2.359-22.552.734-22.552.734s9.31-15.339,14-17.646a9.5,9.5,0,0,1,8.556,16.964Z" transform="translate(-109.896 -97.27)" fill="#00bfa6"/><path d="M962.911,679.932c-4.194,3.145-22.1,4.529-22.1,4.529s6.584-16.691,10.8-19.805a9.5,9.5,0,0,1,11.3,15.276Z" transform="translate(-109.699 -95.198)" fill="#00bfa6"/><path d="M212.9,649.6s26.935-91.341-5.033-158.652c-13.42-28.235-17.824-59.919-11.669-90.555a242.759,242.759,0,0,1,12.823-42.5" transform="translate(-145.912 -109.972)" fill="none" stroke="#535461" stroke-miterlimit="10" stroke-width="2"/><path d="M189.33,318.277c0,11.2,20.277,43.679,20.277,43.679s20.267-32.5,20.267-43.679a20.277,20.277,0,1,0-40.554,0Z" transform="translate(-146.113 -112.874)" fill="#00bfa6"/><path d="M157.5,377.938c6.091,9.436,40.764,25.645,40.764,25.645s-.629-38.29-6.721-47.684A20.277,20.277,0,0,0,157.5,377.917Z" transform="translate(-147.8 -110.498)" fill="#00bfa6"/><path d="M159.265,479.4c10,5.043,48.135,1.562,48.135,1.562s-19.921-32.733-29.87-37.744a20.279,20.279,0,0,0-18.264,36.214Z" transform="translate(-148.11 -105.943)" fill="#00bfa6"/><path d="M177.38,555.591c9.006,6.658,47.18,9.667,47.18,9.667s-14.049-35.648-23.066-42.274a20.278,20.278,0,0,0-24.114,32.607Z" transform="translate(-147.09 -102.165)" fill="#00bfa6"/><path d="M238.951,404.61c-8.031,7.8-45.461,15.884-45.461,15.884s9.164-37.178,17.195-44.979a20.3,20.3,0,0,1,28.308,29.095Z" transform="translate(-145.911 -109.397)" fill="#00bfa6"/><path d="M259.325,494.283c-10,5.043-48.135,1.562-48.135,1.562s19.921-32.733,29.871-37.744a20.279,20.279,0,0,1,18.264,36.214Z" transform="translate(-145.054 -105.222)" fill="#00bfa6"/><path d="M267.031,583.861c-9.006,6.658-47.181,9.667-47.181,9.667s14.049-35.648,23.066-42.274a20.278,20.278,0,0,1,24.115,32.607Z" transform="translate(-144.634 -100.795)" fill="#00bfa6"/><path d="M530.151,421.705l-58.43-7.57c-2.37-.3-4.194-1.206-4.131-1.992h0c.1-.786,2.1-1.153,4.519-.807l58.3,8.44c1.6.231,2.82.839,2.747,1.373h0C533.087,421.653,531.745,421.915,530.151,421.705Z" transform="translate(-132.63 -107.389)" fill="#00bfa6"/><path d="M530.526,422.453l-58.609-6.06c-2.38-.241-4.4.2-4.477.986h0c-.073.786,1.824,1.615,4.194,1.824l58.714,5.242c1.615.147,2.936-.168,2.988-.7h0C533.377,423.177,532.13,422.621,530.526,422.453Z" transform="translate(-132.637 -107.141)" fill="#00bfa6"/><path d="M611.61,464.705l58.42-7.57c2.369-.3,4.194-1.206,4.131-1.992h0c-.1-.786-2.1-1.153-4.519-.807l-58.3,8.44c-1.6.231-2.82.839-2.747,1.373h0C608.663,464.653,610.005,464.915,611.61,464.705Z" transform="translate(-125.797 -105.305)" fill="#00bfa6"/><path d="M611.24,465.453l58.609-6.06c2.38-.241,4.4.2,4.477.986h0c.073.786-1.824,1.615-4.194,1.824l-58.714,5.242c-1.615.147-2.936-.168-2.988-.7h0C608.388,466.177,609.636,465.621,611.24,465.453Z" transform="translate(-125.805 -105.057)" fill="#00bfa6"/><rect width="14.249" height="204.302" transform="translate(278.302 422.15)" fill="#40414d"/><rect width="14.249" height="204.302" transform="translate(589.505 422.15)" fill="#40414d"/><path d="M261.316,386.78H590.531A23.066,23.066,0,0,1,613.6,409.846v3.061H238.25v-3.061a23.066,23.066,0,0,1,23.066-23.066Z" transform="translate(11.544 18.742)" fill="#dfe6f5"/><path d="M260.316,386.78H589.531A23.066,23.066,0,0,1,612.6,409.846v3.061H237.25v-3.061a23.066,23.066,0,0,1,23.066-23.066Z" transform="translate(11.496 18.742)" opacity="0.1"/><path d="M261.316,382.24H590.531A23.066,23.066,0,0,1,613.6,405.306v3.061H238.25v-3.062A23.066,23.066,0,0,1,261.316,382.24Z" transform="translate(11.544 18.522)" fill="#dfe6f5"/><circle cx="28.508" cy="28.508" r="28.508" transform="translate(408.96 327.118)" fill="#ffd77c" stroke="#ffab50" stroke-miterlimit="10" stroke-width="1"/><circle cx="22.594" cy="22.594" r="22.594" transform="translate(414.874 333.031)" fill="#ffd77c" stroke="#ffab50" stroke-miterlimit="10" stroke-width="1"/><circle cx="17.216" cy="17.216" r="17.216" transform="translate(420.252 338.41)" fill="#ffd77c" stroke="#ffab50" stroke-miterlimit="10" stroke-width="1"/><circle cx="9.677" cy="9.677" r="9.677" transform="translate(427.791 345.948)" fill="#ffd77c" stroke="#ffab50" stroke-miterlimit="10" stroke-width="1"/><circle cx="28.508" cy="28.508" r="28.508" transform="translate(392.332 342.562)" fill="#ffd77c" stroke="#ffab50" stroke-miterlimit="10" stroke-width="1"/><circle cx="22.594" cy="22.594" r="22.594" transform="translate(398.245 348.475)" fill="#ffd77c" stroke="#ffab50" stroke-miterlimit="10" stroke-width="1"/><circle cx="17.216" cy="17.216" r="17.216" transform="translate(403.624 353.854)" fill="#ffd77c" stroke="#ffab50" stroke-miterlimit="10" stroke-width="1"/><circle cx="9.677" cy="9.677" r="9.677" transform="translate(411.162 361.392)" fill="#ffd77c" stroke="#ffab50" stroke-miterlimit="10" stroke-width="1"/><circle cx="28.508" cy="28.508" r="28.508" transform="translate(425.589 342.562)" fill="#ffd77c" stroke="#ffab50" stroke-miterlimit="10" stroke-width="1"/><circle cx="22.594" cy="22.594" r="22.594" transform="translate(431.502 348.475)" fill="#ffd77c" stroke="#ffab50" stroke-miterlimit="10" stroke-width="1"/><circle cx="17.216" cy="17.216" r="17.216" transform="translate(436.881 353.854)" fill="#ffd77c" stroke="#ffab50" stroke-miterlimit="10" stroke-width="1"/><circle cx="9.677" cy="9.677" r="9.677" transform="translate(444.419 361.392)" fill="#ffd77c" stroke="#ffab50" stroke-miterlimit="10" stroke-width="1"/><path d="M360.6,346H479.38v5.578a41.938,41.938,0,0,1-41.938,41.938h-34.9A41.938,41.938,0,0,1,360.6,351.578Z" transform="translate(17.473 16.766)" fill="#00bfa6"/><path d="M615.064,467.42a47.506,47.506,0,0,1-47.484,46.321H544a47.615,47.615,0,0,0,10.484,1.2h23.758A47.516,47.516,0,0,0,625.78,467.42Z" transform="translate(-128.927 -104.665)" opacity="0.1"/><rect width="14.249" height="308.833" transform="translate(596.634 577.751) rotate(90)" fill="#40414d"/><rect width="12.466" height="113.422" transform="translate(159.543 527.992)" fill="#40414d"/><rect width="12.466" height="113.422" transform="translate(258.004 527.992)" fill="#40414d"/><path d="M420.841,607.824c0,7.57-25.666,13.714-57.33,13.714S307.43,615.4,307.43,607.824s24.419-13.714,56.082-13.714S420.841,600.285,420.841,607.824Z" transform="translate(-140.39 -98.526)" fill="#f6c6cd"/><path d="M142.66,485.75H273.528v11.428a11.009,11.009,0,0,1-11.009,11.009H161.532a18.872,18.872,0,0,1-18.872-18.872Z" transform="translate(6.913 23.537)" fill="#40414d"/><path d="M7.36,0h2.768a7.339,7.339,0,0,1,7.339,7.339V155.78H13.273A13.273,13.273,0,0,1,0,142.506V7.339A7.339,7.339,0,0,1,7.36,0Z" transform="translate(120.171 379.768) rotate(-12.72)" fill="#40414d"/><rect width="12.466" height="113.422" transform="translate(717.479 643.427) rotate(180)" fill="#40414d"/><rect width="12.466" height="113.422" transform="translate(619.019 643.427) rotate(180)" fill="#40414d"/><path d="M717.13,609.745c0,7.57,25.666,13.714,57.33,13.714s56.082-6.133,56.082-13.714S806.112,596,774.459,596,717.13,602.175,717.13,609.745Z" transform="translate(-120.538 -98.434)" fill="#f6c6cd"/><path d="M18.872,0H119.859a11.009,11.009,0,0,1,11.009,11.009V22.437H0V18.872A18.872,18.872,0,0,1,18.872,0Z" transform="translate(727.45 533.748) rotate(180)" fill="#40414d"/><path d="M13.252,0h4.194V148.461a7.339,7.339,0,0,1-7.339,7.339H7.339A7.339,7.339,0,0,1,0,148.461V13.273A13.273,13.273,0,0,1,13.252,0Z" transform="translate(722.55 533.728) rotate(-167.28)" fill="#40414d"/><path d="M838.367,579.59l3.68-1.164s-6.291-42.022-6.228-79.683v-3.25c.073-2.349.157-4.676.273-6.951.147-2.915.178-5.693.157-8.388.346-36.266-13.944-51.584-13.944-51.584s-16.775-23.926-26.83-28.581c-.87-2.726-1.866-6.228-2.747-10.3.325-.22.64-.44.944-.671a135.711,135.711,0,0,0,11.9-9.929c5.158-4.833,10.107-10.726,9.834-17.373a12.741,12.741,0,0,0-.063-1.94c-.954-8.021-9.289-14.06-12.655-21.661-2.831-6.385-1.982-13.494-4.456-19.973s-11.114-12.508-17.635-9.1c-2.4,1.258-3.848,3.481-5.85,5.169-4.97,4.194-12.98,4.582-19.774,2.674s-8.807-9.688-18.306-9.709a11.034,11.034,0,0,1,2.4,1.143,15.116,15.116,0,0,0-2.4-.21,10.485,10.485,0,0,1,7.255,8.818,7.25,7.25,0,0,1-.084.755c-3.8,2.045-8.786.881-13.336.807s-9.73,2.223-9.279,5.945a3.592,3.592,0,0,0,0,1.279c.6,2.82,4.372,4.949,4.833,7.559v.21a78.382,78.382,0,0,1-26.893,7.842c-.3,0-.168.367.273.9h-.273c-1.709.178,10.243,9.625,11.606,10.243,4.991,2.265,10.956,3.932,16.241,5.672l.461.147a33.066,33.066,0,0,0-2.695,13.1c0,16.146,11.606,29.713,27.323,33.551,2.936,3.428,6.018,7.192,8.828,10.935h-.2s-18.065,24.031-17.488,59.919a104.88,104.88,0,0,0,.713,13.462c-11.617-.66-36.581-3.722-55.568-17.625-25.614-18.736-54.184-13.116-48.229-1.877s36.455,20.6,41.372,21.546c.461.084,1.531.336,3.062.713-6.06,1.143-10.212,3.145-9.96,5.84.493,5.148,26.6,21.546,42.358,22.479,10.411.619,22.94,3.827,32.827,6.647.954,21.546-4.257,28-4.257,28s1.552.954,4.12,2.307l-1.1,3.145c-6.4,3.69-14.28,7.538-21.451,9.09a117.828,117.828,0,0,0-26.463,8.807l-35.469,17.142a20.539,20.539,0,0,0-11.743,16.136c-.776,7.266,1.415,16.345,13.284,23.548.734,5.9,4.341,12.791,13.808,19.1,18.348,12.2,66.566,48.764,73.13,53.754.126,8.922-1.048,26.82-12.057,29.608-13.8,3.5-2.695,16.775,8.461,16.251a14.616,14.616,0,0,0,8.293.608c11.827-2.81,55.17-17.824,58.126-40.282a21.532,21.532,0,0,0,.168-2.936,19.585,19.585,0,0,0-2.747-10.914,19.653,19.653,0,0,1,1.122,3.145c-3.586-8.178-12.319-13.315-19.113-16.209v-.231c-1.048-.409-2.1-.744-2.957-1.048a8.8,8.8,0,0,0-.136-1.814L724.861,637.36s29.556-24.356,60.1-20.6,35.406-1.793,35.406-1.793,15.664-14.9,17.237-32.051l.985-.262S838.514,581.571,838.367,579.59Z" transform="translate(-124.306 -112.429)" fill="url(#a)"/><path d="M750.793,684.25s2.779,30.583-11.124,34.295-.922,18.537,10.191,15.727,51.909-17.614,54.687-39.841-27.805-29.661-27.805-29.661Z" transform="translate(-119.738 -95.102)" fill="#b8616e"/><path d="M750.793,684.25s2.779,30.583-11.124,34.295-.922,18.537,10.191,15.727,51.909-17.614,54.687-39.841-27.805-29.661-27.805-29.661Z" transform="translate(-119.738 -95.102)" opacity="0.05"/><path d="M756.123,685.13s2.779,30.583-11.124,34.3-.923,18.537,10.191,15.727,51.909-17.614,54.687-39.841-27.805-29.661-27.805-29.661Z" transform="translate(-119.48 -95.059)" fill="#b8616e"/><path d="M783.928,666.55,758,686.02s.115,1.321.189,3.429c9.793-2.684,31.129-9.814,31.454-20.969A50.241,50.241,0,0,0,783.928,666.55Z" transform="translate(-118.558 -95.016)" opacity="0.1"/><rect width="11.124" height="8.346" transform="translate(638.027 305.048)" fill="#f8bdc5"/><path d="M761.8,541s-17.667,13.881-32.177,17.174a107.1,107.1,0,0,0-24.9,8.713L671.347,583.85A20.277,20.277,0,0,0,660.3,599.818c-.954,9.436,2.841,21.85,25.488,29.231l71.368,59.322L779.4,669.834l-76-58.378,58.4-36.151Z" transform="translate(-123.298 -101.099)" fill="#758ac8"/><path d="M761.8,541s-17.667,13.881-32.177,17.174a107.1,107.1,0,0,0-24.9,8.713L671.347,583.85A20.277,20.277,0,0,0,660.3,599.818c-.954,9.436,2.841,21.85,25.488,29.231l71.368,59.322L779.4,669.834l-76-58.378,58.4-36.151Z" transform="translate(-123.298 -101.099)" opacity="0.1"/><path d="M752.2,483.153s-34.3.923-58.4-17.614-50.976-12.98-45.419-1.856,34.3,20.392,38.929,21.315,71.368,19.47,71.368,19.47Z" transform="translate(-123.905 -105.342)" fill="#f8bdc5"/><path d="M752.2,483.153s-34.3.923-58.4-17.614-50.976-12.98-45.419-1.856,34.3,20.392,38.929,21.315,71.368,19.47,71.368,19.47Z" transform="translate(-123.905 -105.342)" opacity="0.05"/><path d="M754.73,533.06l-11.124,33.372S681.045,604.9,675.939,610c-3.963,3.963-9.268,19.47,9.268,32.439S754.72,696.2,754.72,696.2s38.929-8.388,36.151-24.115l-63.956-46.342s27.805-24.115,56.543-20.392S816.83,603.5,816.83,603.5s22.248-22.269,14.825-43.553S754.73,533.06,754.73,533.06Z" transform="translate(-122.721 -101.484)" fill="#758ac8"/><path d="M737.65,390.285s31.517,34.295,29.661,44.486,25.027-29.661,25.027-29.661-8.388-20.392-6.49-42.641Z" transform="translate(-119.544 -109.75)" fill="#f8bdc5"/><path d="M764.993,419.957a92.1,92.1,0,0,1,6.783-6.469,94.044,94.044,0,0,0,12.99-12.969c6.49-8.388,30.583,27.805,30.583,27.805S830.176,445,828.33,484.867s2.317,93.155,2.317,93.155l-5.609,1.562a32.113,32.113,0,0,1-28.413-4.036c-7.4-5.117-16.775-10.485-23.9-10.967-13.9-.923-26.421-8.807-26.421-8.807s6.029-14.364-3.24-60.716,14.353-79.295,14.353-79.295S759.279,425.849,764.993,419.957Z" transform="translate(-119.386 -107.968)" opacity="0.1"/><path d="M833.885,573.968l-5.557,1.856-3.3,1.1a32.1,32.1,0,0,1-28.413-4.037c-7.392-5.106-16.775-10.484-23.9-10.967C758.826,560.988,743.1,550.8,743.1,550.8s9.268-12.047,0-58.4,14.364-79.253,14.364-79.253,1.866,10.034,7.58,4.131a91.013,91.013,0,0,1,6.773-6.459,94.051,94.051,0,0,0,12.99-12.969c6.49-8.388,30.583,27.805,30.583,27.805s14.825,16.681,12.98,56.543c-.2,4.194-.283,8.513-.294,12.886C827.94,532.386,833.885,573.968,833.885,573.968Z" transform="translate(-119.384 -108.097)" fill="#5e52ad"/><path d="M781.979,479.387l.923,20.392s-49.131,2.778-59.322-7.413,27.784,29.975,36.172,32.439c7.874,2.317,28.2,4.362,38.866,4.571a15.727,15.727,0,0,0,14.678-8.9,14.836,14.836,0,0,0,1.153-8.65c-1.856-12.047,0-38.007,0-38.007Z" transform="translate(-120.309 -104.355)" opacity="0.1"/><path d="M784.041,477.617l.923,20.393s-49.131,2.778-59.322-7.413-47.065-7.937-46.342,0c.461,5.1,25.027,21.315,39.841,22.248s34.285,7.727,42.672,10.191c7.874,2.317,28.2,4.362,38.866,4.571a15.727,15.727,0,0,0,14.678-8.9,14.837,14.837,0,0,0,1.153-8.65c-1.856-12.047,0-38.006,0-38.006Z" transform="translate(-122.372 -104.44)" fill="#f8bdc5"/><path d="M790.678,420.781s-21.315,2.778-18.537,34.295,6.49,34.295,6.49,34.295,31.517-2.778,35.218-3.711,1.856-35.218,1.856-35.218S814.772,419.858,790.678,420.781Z" transform="translate(-117.884 -106.926)" opacity="0.1"/><path d="M790.678,419.9s-21.315,2.778-18.537,34.295,6.49,34.295,6.49,34.295,31.517-2.778,35.218-3.712,1.856-35.218,1.856-35.218S814.772,418.957,790.678,419.9Z" transform="translate(-117.884 -106.968)" fill="#5e52ad"/><path d="M784.412,382.318c-1.457-7.339,1.531-9.6,2.317-19l-48.229,27.8s5.525,6.018,11.806,13.745a34.357,34.357,0,0,0,8.587,1.048C771.526,405.971,778.436,392.4,784.412,382.318Z" transform="translate(-119.502 -109.709)" opacity="0.1"/><circle cx="34.295" cy="34.295" r="34.295" transform="translate(604.193 226.729)" fill="#f8bdc5"/><path d="M768.448,362.874c-5.242,3.334-5.316,10.872-1.939,16.094s9.195,8.671,14.794,11.921c1.625.944,3.418,1.919,5.242,1.709a7.727,7.727,0,0,0,3.754-1.9,129.4,129.4,0,0,0,11.2-9.824c5.1-5.012,9.992-11.187,9.2-18.18-.9-7.937-8.744-13.913-11.911-21.43-2.663-6.291-1.866-13.347-4.194-19.774S784.1,309.12,778,312.485c-2.254,1.237-3.617,3.449-5.5,5.116-4.676,4.131-12.214,4.54-18.61,2.653s-8.293-9.593-17.216-9.614c4.435,1.562,7.434,6.186,6.752,10.4-3.575,2.023-8.272.87-12.581.8s-9.436,2.338-8.692,6.217c.65,3.145,5.19,5.483,4.519,8.629a71.041,71.041,0,0,1-25.31,7.759c-1.6.178,9.635,9.52,10.914,10.139,4.687,2.244,10.317,3.89,15.276,5.609C741.02,364.835,754.818,366.491,768.448,362.874Z" transform="translate(-121.31 -112.262)" opacity="0.1"/><path d="M768.448,361.984c-5.242,3.334-5.316,10.872-1.94,16.094S775.7,386.749,781.3,390c1.625.944,3.418,1.919,5.242,1.709a7.728,7.728,0,0,0,3.754-1.9,129.431,129.431,0,0,0,11.2-9.824c5.1-5.012,9.992-11.187,9.2-18.18-.9-7.937-8.744-13.913-11.91-21.43-2.663-6.291-1.866-13.347-4.194-19.774S784.1,308.23,778,311.6c-2.254,1.237-3.617,3.449-5.5,5.117-4.676,4.131-12.214,4.54-18.61,2.653s-8.293-9.593-17.216-9.614c4.435,1.562,7.434,6.186,6.752,10.4-3.575,2.023-8.272.87-12.581.8s-9.436,2.338-8.692,6.217c.65,3.145,5.19,5.483,4.519,8.629a71.044,71.044,0,0,1-25.31,7.759c-1.6.178,9.635,9.52,10.914,10.139,4.687,2.244,10.317,3.89,15.276,5.609C741.02,363.955,754.818,365.58,768.448,361.984Z" transform="translate(-121.31 -112.305)" fill="#916168"/><path d="M807.438,680.89a20.454,20.454,0,0,1,1.5,10.914c-2.778,22.248-43.563,37.073-54.687,39.841-5.861,1.468-12.246-1.961-14.919-6.081,1.72,4.844,9.122,9.614,15.853,7.937,11.124-2.778,51.909-17.614,54.687-39.841A20.351,20.351,0,0,0,807.438,680.89Z" transform="translate(-119.462 -94.321)" fill="#fff" opacity="0.1"/><path d="M537.1,724.029h0c-.828-1.866-5.127-5.5-25.855-6.291-14.2-.535-19.029-8.031-20.34-15.349,4.666-.608,8.314-1.447,9.51-2.611,0,0-.063-.336-.168-.933l.168-.126A98.237,98.237,0,0,1,499,682.741a61.477,61.477,0,0,1,1.447-13.63,40.2,40.2,0,0,0,.723-8.985c.115-17.824-6.144-49.152-6.144-49.152l-.86-26.033a18.086,18.086,0,0,0-9.845-15.622,14.816,14.816,0,0,0-6.658-1.657s-32.859-5.179-62.436-8c-2.1-1.688-9.489-6.238-26.432-3.628L379.048,527.5a8.113,8.113,0,0,1-.168-1.048c.346-3.628,2.768-9.09,14.06-9.436l2.359,2.1s.419-.828,1.122-2.1c14.007-.157,90.314-.933,94.246,0,4.33,1.048,42.263-7.4,43.354-8.451,14.741-14.374-43.354-7.4-43.354-7.4-5.714.933-24.177-.178-43.092-1.719,9.363-14.039,18.17-61.691,18.17-61.691s33.551-16.912,23.842-26.421-39.013,21.137-39.013,21.137-11.921,34.882-17.341,45.451c-2.1,4.194-4.812,5.054-7.234,4.571,1.1-.881,1.814-1.4,1.814-1.4S403.97,462.051,401.8,454.66a17.654,17.654,0,0,0-1.594-3.47c-1.143-6.7-3.145-13.294-8.031-17.687a18.171,18.171,0,0,0-2.705-2.38c-1.321-.944-2.82-1.761-4.068-2.789h0c.7-3.229,1.52-6.584,2.369-9.835,17.7-2.1,31.454-16.775,31.454-34.6a34.128,34.128,0,0,0-.954-7.979,15.37,15.37,0,0,0,13.63-6.563c3.575-5.326,3.46-12.581.461-18.2a22.531,22.531,0,0,0-4.8-6.06,28.4,28.4,0,0,0-11.009-6.878c-3.6-1.248-7.57-1.992-10.422-4.435a46.211,46.211,0,0,1-3.47-5.242,26.832,26.832,0,0,0-4.194-4.886c-5.242-5.4-12.644-8.723-20.183-10.191-9.184-1.793-18.673-1.153-28.015-.514-3.491.241-7.591.86-9.164,3.9-1.185,2.286-.409,5.022-.566,7.57-.493,8.1-9.761,12.581-17.824,14.542s-17.677,3.659-21.567,10.768c-3.533,6.417-1.048,14.2.084,21.4a52.349,52.349,0,0,1-7.895,36.266c-3.544,5.421-8.115,10.243-10.914,16.062a30.625,30.625,0,0,0-2.034,20.822c.524,2.034,1.279,4.11.9,6.186a10.789,10.789,0,0,1-2.453,4.6,55.568,55.568,0,0,1-39.527,20.476,11.322,11.322,0,0,0,3.607,5.441,26.055,26.055,0,0,0,7.486,5.169,113.039,113.039,0,0,0,22.961,8.545c5.347,1.352,10.935,2.317,16.377,1.394s10.747-4.037,12.98-8.964c1.3-2.852,1.489-6.081,2.642-8.985,2.3-5.808,7.989-9.572,11.837-14.553a363.891,363.891,0,0,0-1.835,38.625v11.051c0,14.563-1.048,24.607-10.076,42.8a10.862,10.862,0,0,0-1.353,6.291,6.9,6.9,0,0,0,2.359,6.406,62.113,62.113,0,0,0-.912,10.988C305.258,593,309.735,610.8,333.472,615.3l42.263-2.1s59.6-11.627,75.856-3.145a6,6,0,0,1,4.749,5.85,13.455,13.455,0,0,1-.409,2.611,41.036,41.036,0,0,0-.514,8.314c-.073,17.824,3.764,58.273,3.764,58.273v17.153c-2.705,4.068-6.039,10.086-5.609,14.521v.294a.908.908,0,0,0,.063.388c.063.126,0,.231.073.346a1.011,1.011,0,0,1,.094.336,2.6,2.6,0,0,0,.136.367c.052.115.073.189.115.283s.136.273.21.4l.126.22a5.08,5.08,0,0,0,.419.577c5.421,6.291,32.5,18.463,41.183,17.971,9.216-.524,40.093,1.048,41.183-12.686a1.667,1.667,0,0,0-.073-1.248Z" transform="translate(-143.691 -112.182)" fill="url(#b)"/><path d="M450.258,680.116s-12.582,15.727-7.339,22.018,31.454,18.316,39.841,17.824c8.912-.524,38.793,1.048,39.841-12.581,0,0,2.1-6.291-25.163-7.339s-18.872-29.357-18.872-29.357Z" transform="translate(-133.887 -94.816)" fill="#594c76"/><path d="M306.953,553.936s-12.581,42.987,25.163,50.326l40.89-2.1s57.665-11.533,73.392-3.145c0,0,6.291,1.049,4.194,9.436s3.145,65,3.145,65v18.872s35.648,0,39.841-4.194c0,0-3.145-16.775,0-30.405s-5.242-56.617-5.242-56.617l-.828-25.876a17.992,17.992,0,0,0-9.5-15.517,14.049,14.049,0,0,0-6.438-1.636s-71.3-11.533-96.458-9.436S306.953,553.936,306.953,553.936Z" transform="translate(-140.511 -100.741)" opacity="0.1"/><path d="M306.953,552.936s-12.581,42.987,25.163,50.326l40.89-2.1s57.665-11.533,73.392-3.145c0,0,6.291,1.048,4.194,9.436s3.145,65,3.145,65v18.872s35.648,0,39.841-4.194c0,0-3.145-16.775,0-30.405s-5.242-56.617-5.242-56.617l-.828-25.876a17.991,17.991,0,0,0-9.5-15.517,14.047,14.047,0,0,0-6.438-1.635s-71.3-11.533-96.458-9.436S306.953,552.936,306.953,552.936Z" transform="translate(-140.511 -100.789)" fill="#8b9cd1"/><path d="M410.248,474.817s8.388,10.485,13.63,0,16.775-45.084,16.775-45.084,28.308-30.405,37.744-20.969-23.066,26.211-23.066,26.211-11.533,63.956-22.018,65-26.211,0-26.211,0l-5.242-11.533Z" transform="translate(-135.814 -107.595)" fill="#f8bdc5"/><path d="M410.248,474.817s8.388,10.485,13.63,0,16.775-45.084,16.775-45.084,28.308-30.405,37.744-20.969-23.066,26.211-23.066,26.211-11.533,63.956-22.018,65-26.211,0-26.211,0l-5.242-11.533Z" transform="translate(-135.814 -107.595)" opacity="0.05"/><path d="M374.732,421.68S393.6,443.7,395.7,451.037s25.163,26.211,25.163,26.211-16.775,12.581-13.63,18.872-22.018-20.969-22.018-20.969L355.86,432.164Z" transform="translate(-138.044 -106.881)" fill="#eb6475"/><path d="M374.732,421.68S393.6,443.7,395.7,451.037s25.163,26.211,25.163,26.211-16.775,12.581-13.63,18.872-22.018-20.969-22.018-20.969L355.86,432.164Z" transform="translate(-138.044 -106.881)" opacity="0.1"/><path d="M388.09,398.11s-9.436,30.405-9.436,41.938-39.841-3.145-38.793-9.436,23.066-29.357,24.114-38.793S388.09,398.11,388.09,398.11Z" transform="translate(-138.82 -108.474)" fill="#f8bdc5"/><path d="M358.4,417.71s-36.7-9.436-41.938,44.035,4.194,59.762-11.533,92.264S411.867,558.2,411.867,558.2s-6.291-7.339-26.211-4.194L376.219,525.7s-3.145-12.581,14.678-12.581,9.436-36.7,9.436-36.7-9.436-31.454-14.678-34.6S370.977,419.807,358.4,417.71Z" transform="translate(-140.579 -107.105)" opacity="0.1"/><path d="M358.4,415.71s-36.7-9.436-41.938,44.035,4.194,59.762-11.533,92.264S411.867,556.2,411.867,556.2s-6.291-7.339-26.211-4.194L376.219,523.7s-3.145-12.581,14.678-12.581,9.436-36.7,9.436-36.7-9.436-31.454-14.678-34.6S370.977,417.807,358.4,415.71Z" transform="translate(-140.579 -107.202)" fill="#eb6475"/><path d="M391.1,487.68s76.537,8.388,89.119,6.291c0,0,56.2-6.92,41.938,7.339-1.048,1.049-37.744,9.436-41.938,8.388s-93.313,0-93.313,0l-1.048-10.485Z" transform="translate(-136.59 -103.683)" fill="#f8bdc5"/><path d="M335,464.554l55.568,50.326s10.485-20.969,13.63-20.969-37.744-61.859-37.744-61.859-10.485-12.581-16.775-6.291S324.519,427.858,335,464.554Z" transform="translate(-139.205 -106.769)" opacity="0.1"/><path d="M334,462.554l55.568,50.326s10.485-20.969,13.63-20.969-37.744-61.859-37.744-61.859-10.485-12.582-16.775-6.291S323.519,425.858,334,462.554Z" transform="translate(-139.253 -106.866)" fill="#eb6475"/><circle cx="34.599" cy="34.599" r="34.599" transform="translate(205.235 239.31)" fill="#f8bdc5"/><path d="M413.552,377.221c5.871,2.317,13.064-.461,16.524-5.735s3.355-12.456.44-18.054-8.3-9.667-14.249-11.785c-3.607-1.279-7.622-2.013-10.39-4.655-1.751-1.667-2.789-3.921-4.1-5.955-4.9-7.633-13.63-12.141-22.51-13.913s-18.065-1.143-27.1-.514c-3.376.241-7.339.849-8.87,3.869-1.143,2.265-.4,4.98-.545,7.507-.472,8.042-9.436,12.5-17.268,14.427s-16.912,3.743-20.728,10.831c-3.418,6.364-.975,14.081.084,21.231a52.989,52.989,0,0,1-7.633,35.889c-3.428,5.379-7.842,10.159-10.558,15.936a31.077,31.077,0,0,0-1.971,20.655c.514,2.023,1.237,4.079.881,6.133a10.789,10.789,0,0,1-2.37,4.561,53.345,53.345,0,0,1-38.237,20.361c1.2,4.5,5.546,7.339,9.688,9.436a107.666,107.666,0,0,0,22.206,8.471c5.169,1.342,10.579,2.3,15.842,1.384s10.39-4.005,12.581-8.891c1.258-2.831,1.447-6.029,2.558-8.922,2.506-6.49,9.185-10.411,12.77-16.377,3.428-5.7,4.76-6.375,5.63-12.959s2.789-13.693,8.2-17.562c5.662-4.057,13.63-3.282,19.921-.168s10.181,1.9,15.433,6.469A127.91,127.91,0,0,0,400.4,458.623c-1.048-9.143-2.736-19.344-10.16-24.785-2.1-1.562-4.749-2.757-5.861-5.148-1.772-3.806,1.258-8.451-.115-12.424s-6.595-5.442-8.912-9.048c-1.971-3.061-1.436-7.224.409-10.369s4.76-5.473,7.664-7.675q3.869-2.925,7.842-5.714a28.017,28.017,0,0,0,6.375-5.557c1.048-1.436,1.74-4.582,3.2-5.6C404.514,369.766,410.155,375.889,413.552,377.221Z" transform="translate(-143.418 -112.004)" opacity="0.1"/><path d="M412.552,376.221c5.871,2.317,13.064-.461,16.524-5.735s3.355-12.456.44-18.054-8.3-9.667-14.249-11.785c-3.607-1.279-7.622-2.013-10.39-4.655-1.751-1.667-2.789-3.921-4.1-5.955-4.9-7.633-13.63-12.141-22.51-13.913s-18.065-1.143-27.1-.514c-3.376.241-7.339.849-8.87,3.869-1.143,2.265-.4,4.98-.545,7.507-.472,8.042-9.436,12.5-17.268,14.427s-16.912,3.743-20.728,10.831c-3.418,6.364-.975,14.081.084,21.231a52.989,52.989,0,0,1-7.633,35.889c-3.428,5.379-7.842,10.16-10.558,15.937a31.076,31.076,0,0,0-1.971,20.655c.514,2.023,1.237,4.079.881,6.133a10.79,10.79,0,0,1-2.37,4.561,53.346,53.346,0,0,1-38.237,20.361c1.2,4.5,5.546,7.339,9.688,9.436a107.67,107.67,0,0,0,22.206,8.472c5.169,1.342,10.579,2.3,15.842,1.384s10.39-4.005,12.581-8.891c1.258-2.831,1.447-6.029,2.558-8.922,2.506-6.49,9.184-10.411,12.77-16.377,3.428-5.7,4.76-6.375,5.63-12.959s2.789-13.693,8.2-17.562c5.662-4.058,13.63-3.282,19.921-.168s10.181,1.9,15.433,6.469A127.91,127.91,0,0,0,399.4,457.623c-1.048-9.142-2.736-19.344-10.159-24.785-2.1-1.562-4.749-2.757-5.861-5.148-1.772-3.806,1.258-8.451-.115-12.424s-6.595-5.441-8.912-9.048c-1.971-3.061-1.436-7.224.409-10.369s4.76-5.473,7.664-7.675q3.869-2.925,7.842-5.714a28.017,28.017,0,0,0,6.375-5.557c1.048-1.436,1.74-4.582,3.2-5.6C403.514,368.766,409.155,374.889,412.552,376.221Z" transform="translate(-143.466 -112.052)" fill="#916168"/><g transform="translate(307.718 575.864)" opacity="0.1"><path d="M475.721,678.942a36.237,36.237,0,0,1,1.2-8.262l-.524.178a36.5,36.5,0,0,0-.671,8.083Z" transform="translate(-439.955 -670.68)" fill="#fff"/><path d="M482.762,716.641c-8.388.493-34.6-11.533-39.841-17.824a5.587,5.587,0,0,1-1.216-2.978,6.584,6.584,0,0,0,1.216,5.074c5.242,6.291,31.454,18.317,39.841,17.824,8.912-.524,38.793,1.048,39.841-12.582a1.7,1.7,0,0,0-.147-1.111C520.056,717.606,491.454,716.128,482.762,716.641Z" transform="translate(-441.607 -669.461)" fill="#fff"/></g><rect width="1.048" height="42.987" transform="translate(390.287 310.081)" fill="#ffd77c" stroke="#ffab50" stroke-miterlimit="10" stroke-width="0.25"/><rect width="1.048" height="42.987" transform="translate(391.336 310.081)" fill="#ffd77c" stroke="#ffab50" stroke-miterlimit="10" stroke-width="0.25"/><rect width="1.048" height="42.987" transform="translate(392.384 310.081)" fill="#ffd77c" stroke="#ffab50" stroke-miterlimit="10" stroke-width="0.25"/><rect width="1.048" height="42.987" transform="translate(393.433 310.081)" fill="#ffd77c" stroke="#ffab50" stroke-miterlimit="10" stroke-width="0.25"/><rect width="1.048" height="42.987" transform="translate(394.481 310.081)" fill="#ffd77c" stroke="#ffab50" stroke-miterlimit="10" stroke-width="0.25"/><rect width="1.048" height="42.987" transform="translate(395.53 310.081)" fill="#ffd77c" stroke="#ffab50" stroke-miterlimit="10" stroke-width="0.25"/><rect width="1.048" height="42.987" transform="translate(396.578 310.081)" fill="#ffd77c" stroke="#ffab50" stroke-miterlimit="10" stroke-width="0.25"/></g></svg>