<svg xmlns="http://www.w3.org/2000/svg" width="887.999" height="741.048" viewBox="0 0 887.999 741.048"><g transform="translate(0 0)"><path d="M521.9,253.856h-4.032V143.4a63.927,63.927,0,0,0-63.928-63.927H219.927A63.927,63.927,0,0,0,156,143.4V749.357a63.927,63.927,0,0,0,63.927,63.927h234.01a63.927,63.927,0,0,0,63.927-63.927V332.478H521.9Z" transform="translate(-156 -79.476)" fill="#e6e6e6"/><path d="M456.516,96.108H425.97a22.681,22.681,0,0,1-21,31.247H270.91a22.681,22.681,0,0,1-21-31.247H221.38a47.74,47.74,0,0,0-47.74,47.74V748.912a47.74,47.74,0,0,0,47.74,47.74H456.516a47.74,47.74,0,0,0,47.74-47.74V143.848a47.74,47.74,0,0,0-47.741-47.741Z" transform="translate(-156 -79.476)" fill="#fff"/>
<path d="M269.672,219.111H255.633a1.861,1.861,0,0,0-1.861,1.861v6.162A1.861,1.861,0,0,0,255.633,229h2.327v9.233h9.386V229h2.327a1.861,1.861,0,0,0,1.861-1.861v-6.162A1.861,1.861,0,0,0,269.672,219.111Z" transform="translate(-156 -79.476)" fill="#e6e6e6"/>
<path d="M283.734,275.507a72.178,72.178,0,0,1-12.557-42.794,1.522,1.522,0,0,0-1.188-1.519v-2.663H255.162v2.626h-.2a1.521,1.521,0,0,0-1.519,1.523q0,.055,0,.111,1.752,24.425-11.833,43.808a4.193,4.193,0,0,0-.759,2.541l1.621,50.151a4.341,4.341,0,0,0,4.3,4.19h33.537a4.343,4.343,0,0,0,4.307-4.264l.625-48.693A8.788,8.788,0,0,0,283.734,275.507Z" transform="translate(-156 -79.476)" fill="#e6e6e6"/><path d="M278.425,292.166H249.234a3,3,0,0,0-2.962,3.453l4.411,28.673h25.33l5.358-28.577a3,3,0,0,0-2.946-3.549Z" transform="translate(-156 -79.476)" fill="#fff"/><path d="M425.957,369.345h-14.04a1.861,1.861,0,0,0-1.861,1.861v6.162a1.861,1.861,0,0,0,1.861,1.861h2.327v9.233h9.386V379.23h2.327a1.861,1.861,0,0,0,1.861-1.861v-6.162a1.861,1.861,0,0,0-1.861-1.861Z" transform="translate(-156 -79.476)" fill="#e6e6e6"/><path d="M440.019,425.742a72.178,72.178,0,0,1-12.557-42.794,1.522,1.522,0,0,0-1.188-1.519v-2.662H411.446v2.626h-.2a1.521,1.521,0,0,0-1.519,1.523q0,.055,0,.111,1.752,24.425-11.833,43.808a4.193,4.193,0,0,0-.759,2.541l1.621,50.151a4.341,4.341,0,0,0,4.3,4.19H436.6a4.343,4.343,0,0,0,4.307-4.264l.625-48.693a8.788,8.788,0,0,0-1.51-5.018Z" transform="translate(-156 -79.476)" fill="#e6e6e6"/>

<path d="M434.71,442.4H405.518a3,3,0,0,0-2.962,3.453l4.411,28.673H432.3l5.358-28.577a3,3,0,0,0-2.946-3.549Z" transform="translate(-156 -79.476)" fill="#fff"/>
<path d="M249.935,581.733h-6.659a.883.883,0,0,0-.883.883v2.923a.883.883,0,0,0,.883.883h1.1v4.38h4.452v-4.38h1.1a.883.883,0,0,0,.883-.883v-2.923a.883.883,0,0,0-.883-.883Z" transform="translate(-156 -79.476)" fill="#e6e6e6"/><path d="M256.605,608.484a34.237,34.237,0,0,1-5.956-20.3.722.722,0,0,0-.564-.721V586.2h-7.033v1.245h-.1a.722.722,0,0,0-.721.723q0,.026,0,.052A31.246,31.246,0,0,1,236.623,609a1.988,1.988,0,0,0-.36,1.205L237.032,634a2.059,2.059,0,0,0,2.042,1.988h15.908a2.06,2.06,0,0,0,2.043-2.023l.3-23.1A4.168,4.168,0,0,0,256.605,608.484Z" transform="translate(-156 -79.476)" fill="#e6e6e6"/><rect width="15.179" height="7.59" transform="translate(83.137 537.753)" fill="#fff"/><path d="M280.935,581.733h-6.659a.883.883,0,0,0-.883.883v2.923a.883.883,0,0,0,.883.883h1.1v4.38h4.452v-4.38h1.1a.883.883,0,0,0,.883-.883v-2.923a.883.883,0,0,0-.883-.883Z" transform="translate(-156 -79.476)" fill="#e6e6e6"/><path d="M287.605,608.484a34.237,34.237,0,0,1-5.956-20.3.722.722,0,0,0-.564-.721V586.2h-7.033v1.245h-.1a.722.722,0,0,0-.721.723q0,.026,0,.052A31.246,31.246,0,0,1,267.623,609a1.989,1.989,0,0,0-.36,1.205L268.032,634a2.059,2.059,0,0,0,2.042,1.988h15.908a2.06,2.06,0,0,0,2.043-2.023l.3-23.1A4.169,4.169,0,0,0,287.605,608.484Z" transform="translate(-156 -79.476)" fill="#e6e6e6"/><rect width="15.179" height="7.59" transform="translate(114.137 537.753)" fill="#fff"/><path d="M311.935,581.733h-6.659a.883.883,0,0,0-.883.883v2.923a.883.883,0,0,0,.883.883h1.1v4.38h4.452v-4.38h1.1a.883.883,0,0,0,.883-.883v-2.923a.883.883,0,0,0-.883-.883Z" transform="translate(-156 -79.476)" fill="#e6e6e6"/><path d="M318.605,608.484a34.237,34.237,0,0,1-5.956-20.3.722.722,0,0,0-.564-.721V586.2h-7.033v1.245h-.1a.722.722,0,0,0-.721.723q0,.026,0,.052A31.246,31.246,0,0,1,298.623,609a1.989,1.989,0,0,0-.36,1.205L299.032,634a2.059,2.059,0,0,0,2.042,1.988h15.908a2.06,2.06,0,0,0,2.043-2.023l.3-23.1A4.169,4.169,0,0,0,318.605,608.484Z" transform="translate(-156 -79.476)" fill="#e6e6e6"/><rect width="15.179" height="7.59" transform="translate(145.137 537.753)" fill="#fff"/><path d="M401.567,523.613H387.528a1.861,1.861,0,0,0-1.861,1.861v6.162a1.861,1.861,0,0,0,1.861,1.861h2.327v9.233h9.386V533.5h2.327a1.861,1.861,0,0,0,1.861-1.861v-6.162A1.861,1.861,0,0,0,401.567,523.613Z" transform="translate(-156 -79.476)" fill="#e6e6e6"/><path d="M415.629,580.01a72.178,72.178,0,0,1-12.557-42.794,1.522,1.522,0,0,0-1.188-1.519v-2.663H387.057v2.626h-.2a1.521,1.521,0,0,0-1.519,1.523q0,.055,0,.111Q387.09,561.719,373.5,581.1a4.193,4.193,0,0,0-.759,2.541l1.621,50.151a4.341,4.341,0,0,0,4.3,4.19h33.537a4.343,4.343,0,0,0,4.307-4.264l.625-48.693a8.788,8.788,0,0,0-1.511-5.018Z" transform="translate(-156 -79.476)" fill="#e6e6e6"/><path d="M410.32,596.668H381.129a3,3,0,0,0-2.962,3.453l4.411,28.673h25.33l5.358-28.577a3,3,0,0,0-2.946-3.549Z" transform="translate(-156 -79.476)" fill="#fff"/><path d="M409.232,339.938H325.544c5.851-31.633,4.5-69.832,0-110.911h83.688C404.847,270.107,403.536,308.3,409.232,339.938Z" transform="translate(-156 -79.476)" fill="#e6e6e6"/><circle cx="20.166" cy="20.166" r="20.166" transform="translate(191.726 181.816)" fill="#fff"/><path d="M332.6,487.148H248.914c5.851-31.633,4.5-69.832,0-110.911H332.6C328.217,417.316,326.907,455.515,332.6,487.148Z" transform="translate(-156 -79.476)" fill="#e6e6e6"/><circle cx="20.166" cy="20.166" r="20.166" transform="translate(115.096 329.026)" fill="#fff"/><path d="M456.621,347H372.933c5.851-31.633,4.5-69.832,0-110.911h83.688C452.236,277.165,450.926,315.363,456.621,347Z" transform="translate(-156 -79.476)" fill="#e6e6e6"/><circle cx="20.166" cy="20.166" r="20.166" transform="translate(239.115 188.874)" fill="#fff"/><path d="M456.621,341.955H372.933c5.851-31.633,4.5-69.832,0-110.911h83.688C452.236,272.123,450.926,310.322,456.621,341.955Z" transform="translate(-156 -79.476)" fill="#e6e6e6"/><circle cx="20.166" cy="20.166" r="20.166" transform="translate(239.115 183.832)" fill="#fff"/><path d="M456.621,347H372.933c5.851-31.633,4.5-69.832,0-110.911h83.688C452.236,277.165,450.926,315.363,456.621,347Z" transform="translate(-156 -79.476)" fill="#e6e6e6"/><circle cx="20.166" cy="20.166" r="20.166" transform="translate(239.115 188.874)" fill="#fff"/><rect width="274.254" height="30.249" transform="translate(45.525 254.413)" fill="#e6e6e6"/><rect width="274.254" height="30.249" transform="translate(45.525 404.647)" fill="#e6e6e6"/><rect width="274.254" height="30.249" transform="translate(45.525 554.882)" fill="#e6e6e6"/><path d="M952.855,757.075,884.53,708.75c23.044-22.448,44-54.411,64.046-90.551l68.325,48.326C989.6,697.53,966.471,727.96,952.855,757.075Z" transform="translate(-156 -79.476)" fill="#fff"/><circle cx="20.166" cy="20.166" r="20.166" transform="translate(776.707 585.816)" fill="#fff"/><path d="M623.262,536.554h-7.5a.994.994,0,0,0-.994.994v3.292a.994.994,0,0,0,.994.994H617v4.932h5.014v-4.932h1.243a.994.994,0,0,0,.994-.994v-3.292a.994.994,0,0,0-.994-.994Z" transform="translate(-156 -79.476)" fill="#e6e6e6"/><path d="M630.774,566.682a38.559,38.559,0,0,1-6.708-22.861.813.813,0,0,0-.635-.812v-1.422H615.51v1.4H615.4a.813.813,0,0,0-.812.814c0,.02,0,.039,0,.059a35.189,35.189,0,0,1-6.322,23.4,2.239,2.239,0,0,0-.405,1.357l.866,26.792a2.319,2.319,0,0,0,2.3,2.238h17.916a2.32,2.32,0,0,0,2.3-2.278l.334-26.012A4.7,4.7,0,0,0,630.774,566.682Z" transform="translate(-156 -79.476)" fill="#fff"/><path d="M621.7,537.627a2.145,2.145,0,0,1-4.291,0" transform="translate(-156 -79.476)" opacity="0.2"/><rect width="15.124" height="10.083" transform="translate(456.161 492.368)" fill="#fff"/><path d="M846.563,641.218a1.861,1.861,0,0,0-1.861,1.861v6.162a1.861,1.861,0,0,0,1.861,1.861h2.327v9.233h9.386V651.1H860.6a1.861,1.861,0,0,0,1.861-1.861v-6.163L851.2,641.761Z" transform="translate(-156 -79.476)" fill="#fefefe"/><path d="M874.664,697.615a72.178,72.178,0,0,1-12.557-42.794,1.522,1.522,0,0,0-1.188-1.519V650.64H846.092v2.626h-.2a1.521,1.521,0,0,0-1.519,1.523q0,.055,0,.111,1.752,24.425-11.833,43.808a4.193,4.193,0,0,0-.759,2.541L833.4,751.4a4.341,4.341,0,0,0,4.3,4.19h33.537a4.343,4.343,0,0,0,4.307-4.264l.625-48.693A8.788,8.788,0,0,0,874.664,697.615Z" transform="translate(-156 -79.476)" fill="#fff"/><path d="M869.355,714.273H840.164a3,3,0,0,0-2.962,3.453l4.411,28.673h25.33l5.358-28.577a3,3,0,0,0-2.946-3.549Z" transform="translate(-156 -79.476)" fill="#fff"/><path d="M820.546,757H736.858c5.851-31.633,4.5-69.832,0-110.911h83.688C816.161,687.164,814.851,725.362,820.546,757Z" transform="translate(-156 -79.476)" fill="#fff"/><circle cx="20.166" cy="20.166" r="20.166" transform="translate(603.04 598.873)" fill="#fff"/><path d="M322.243,328.466l18.787-1.708,11.956-29.034-21.349-11.956Z" transform="translate(0 0)" fill="#ffb8b8"/><path d="M650.66,487.65h0a10.593,10.593,0,0,0-9.2-14.517l-29.17-1.739-4.295,14.282,30.029,8.247A10.593,10.593,0,0,0,650.66,487.65Z" transform="translate(-156 -79.476)" fill="#ffb8b8"/><path d="M619.339,494.163l-.321-26.8-64.793-10.339L504.31,399.777a16.338,16.338,0,0,0-21.294-2.912h0a16.338,16.338,0,0,0-2.846,24.922l41.18,50.678Z" transform="translate(-156 -79.476)" fill="#575a89"/><path d="M463.726,795.643h17.079l42.363-191.534,43.887,59.169,25.619,128.095H608.9l-3.416-137.488L548.268,507H491.906c-15.4,27.875-27.485,56.608-13.664,86.25Z" transform="translate(-156 -79.476)" fill="#2f2e41"/><path d="M582.2,807.276a4.457,4.457,0,0,0,3.476,5.718l41.793,7.417a6.876,6.876,0,0,0,7.8-4.713h0a6.834,6.834,0,0,0-3.342-8.126,63.9,63.9,0,0,1-23.048-20.038c-4.593,4.277-9.727,3.875-15.179.723l-5.782.723Z" transform="translate(-156 -79.476)" fill="#2f2e41"/><path d="M455.818,807.276a4.457,4.457,0,0,0,3.476,5.718l41.793,7.417a6.876,6.876,0,0,0,7.8-4.713h0a6.834,6.834,0,0,0-3.342-8.126A63.9,63.9,0,0,1,482.5,787.534c-4.593,4.277-9.727,3.875-15.179.723l-5.782.723Z" transform="translate(-156 -79.476)" fill="#2f2e41"/><circle cx="23.911" cy="23.911" r="23.911" transform="translate(329.502 260.576)" fill="#ffb8b8"/><path d="M488.064,513.407,550.4,511.7,532.1,454.079c11.377-18.239-.073-36.46-16.278-54.677l-12.81-8.54-20.5-1.708h0a50.314,50.314,0,0,0-13.549,35.05C469.369,452.032,474.3,482.324,488.064,513.407Z" transform="translate(-156 -79.476)" fill="#575a89"/><path d="M631.291,552.192h0a10.593,10.593,0,0,0-2.749-16.966l-26.133-13.075-9.567,11.441,24.363,19.4a10.593,10.593,0,0,0,14.086-.8Z" transform="translate(-156 -79.476)" fill="#ffb8b8"/><path d="M599.933,545.858l10.248-24.765-55.5-34.994-23.37-72.268a16.338,16.338,0,0,0-18.432-11.054h0a16.338,16.338,0,0,0-12.421,21.793l17.923,62.791Z" transform="translate(-156 -79.476)" fill="#575a89"/><path d="M470.13,354.569c0,9.3,6.042,23.712,13.664,29.889,5.128,4.156,11.9,3.981,14.517-1.708,2.68-5.836,11.919-19.552,28.181-28.181,21.678-11.5-7.688-31.181-28.181-28.181C482.911,328.643,470.13,339.005,470.13,354.569Z" transform="translate(-156 -79.476)" fill="#2f2e41"/><circle cx="17.079" cy="17.079" r="17.079" transform="translate(311.569 228.126)" fill="#2f2e41"/><path d="M504.289,318.7a17.069,17.069,0,0,0-15.8-17.015c.424-.032.849-.065,1.281-.065a17.079,17.079,0,0,1,0,34.159c-.432,0-.857-.033-1.281-.065a17.069,17.069,0,0,0,15.8-17.015Z" transform="translate(-156 -79.476)" fill="#2f2e41"/><ellipse cx="3.843" cy="5.124" rx="3.843" ry="5.124" transform="translate(349.997 282.779)" fill="#ffb8b8"/><path d="M837.751,684.845H571.879l-56.3-266.151H467.529V406.752h57.729l56.3,266.15H837.751Z" transform="translate(0 0)" fill="#3f3d56"/><circle cx="25.591" cy="25.591" r="25.591" transform="translate(585.25 682.286)" fill="#3f3d56"/><circle cx="25.591" cy="25.591" r="25.591" transform="translate(776.332 682.286)" fill="#3f3d56"/><path d="M988.9,758.7H730.225L684.584,533.145h347.151a12.265,12.265,0,0,1,12.116,14.167l-42.833,201.025A12.2,12.2,0,0,1,988.9,758.7Zm-255.869-3.412H988.9a8.806,8.806,0,0,0,8.742-7.477l42.833-201.025a8.85,8.85,0,0,0-8.744-10.225H688.726Z" transform="translate(-156 -79.476)" fill="#3f3d56"/><path d="M624.513,678.5l-29.89-222.846,3.366-.556,29.89,222.846Z" transform="translate(0 0)" fill="#3f3d56"/><path d="M790.712,676.788l-3.369-.546L816.36,455.1l3.369.546Z" transform="translate(0 0)" fill="#3f3d56"/><rect width="3.412" height="222.846" transform="translate(708.115 455.375)" fill="#3f3d56"/><rect width="3.412" height="330.297" transform="matrix(0.002, -1, 1, 0.002, 546.005, 518.497)" fill="#3f3d56"/><rect width="290.179" height="3.412" transform="translate(562.835 622.477) rotate(-0.392)" fill="#3f3d56"/><ellipse cx="18.767" cy="10.237" rx="18.767" ry="10.237" transform="translate(453.881 400.781)" fill="#3f3d56"/></g></svg>